
      <svg xmlns="http://www.w3.org/2000/svg" version="1.1" width="2000" height="1000" style="display: block;"><polygon stroke-linejoin="round" stroke-miterlimit="1" stroke-width="1" points="1001,1099 486,1096 238,1099" style="fill:#5e43b3;stroke:#5e43b3;"></polygon><polygon stroke-linejoin="round" stroke-miterlimit="1" stroke-width="1" points="1685,-101 1001,-101 1311,-80" style="fill:#6344be;stroke:#6344be;"></polygon><polygon stroke-linejoin="round" stroke-miterlimit="1" stroke-width="1" points="2201,-101 1685,-101 1865,-35" style="fill:#6143b9;stroke:#6143b9;"></polygon><polygon stroke-linejoin="round" stroke-miterlimit="1" stroke-width="1" points="2201,499 1951,395 2021,640" style="fill:#6c46d0;stroke:#6c46d0;"></polygon><polygon stroke-linejoin="round" stroke-miterlimit="1" stroke-width="1" points="2201,1099 2168,994 2141,998" style="fill:#6444c0;stroke:#6444c0;"></polygon><polygon stroke-linejoin="round" stroke-miterlimit="1" stroke-width="1" points="2201,1099 2141,998 2054,1099" style="fill:#6545c1;stroke:#6545c1;"></polygon><polygon stroke-linejoin="round" stroke-miterlimit="1" stroke-width="1" points="2201,907 2164,791 1957,868" style="fill:#6946ca;stroke:#6946ca;"></polygon><polygon stroke-linejoin="round" stroke-miterlimit="1" stroke-width="1" points="2201,907 1957,868 2141,998" style="fill:#6946c9;stroke:#6946c9;"></polygon><polygon stroke-linejoin="round" stroke-miterlimit="1" stroke-width="1" points="2201,907 2141,998 2168,994" style="fill:#6545c2;stroke:#6545c2;"></polygon><polygon stroke-linejoin="round" stroke-miterlimit="1" stroke-width="1" points="2201,907 2168,994 2201,1099" style="fill:#6444bf;stroke:#6444bf;"></polygon><polygon stroke-linejoin="round" stroke-miterlimit="1" stroke-width="1" points="2201,788 2164,791 2201,907" style="fill:#6645c4;stroke:#6645c4;"></polygon><polygon stroke-linejoin="round" stroke-miterlimit="1" stroke-width="1" points="2201,234 2056,139 2091,234" style="fill:#6443be;stroke:#6443be;"></polygon><polygon stroke-linejoin="round" stroke-miterlimit="1" stroke-width="1" points="2201,234 2057,118 2056,139" style="fill:#6343bd;stroke:#6343bd;"></polygon><polygon stroke-linejoin="round" stroke-miterlimit="1" stroke-width="1" points="2201,234 2091,234 2174,355" style="fill:#6444bf;stroke:#6444bf;"></polygon><polygon stroke-linejoin="round" stroke-miterlimit="1" stroke-width="1" points="2201,453 2174,355 2047,321" style="fill:#6644c3;stroke:#6644c3;"></polygon><polygon stroke-linejoin="round" stroke-miterlimit="1" stroke-width="1" points="2201,453 1951,395 2201,499" style="fill:#6845c8;stroke:#6845c8;"></polygon><polygon stroke-linejoin="round" stroke-miterlimit="1" stroke-width="1" points="2201,453 2047,321 1951,395" style="fill:#6945ca;stroke:#6945ca;"></polygon><polygon stroke-linejoin="round" stroke-miterlimit="1" stroke-width="1" points="2201,453 2201,234 2174,355" style="fill:#6444bf;stroke:#6444bf;"></polygon><polygon stroke-linejoin="round" stroke-miterlimit="1" stroke-width="1" points="2201,595 2201,499 2021,640" style="fill:#6945c8;stroke:#6945c8;"></polygon><polygon stroke-linejoin="round" stroke-miterlimit="1" stroke-width="1" points="2201,595 2021,640 2164,791" style="fill:#6a45ca;stroke:#6a45ca;"></polygon><polygon stroke-linejoin="round" stroke-miterlimit="1" stroke-width="1" points="2201,595 2164,791 2201,788" style="fill:#6745c5;stroke:#6745c5;"></polygon><polygon stroke-linejoin="round" stroke-miterlimit="1" stroke-width="1" points="2201,-50 2201,-101 1865,-35" style="fill:#5f42b5;stroke:#5f42b5;"></polygon><polygon stroke-linejoin="round" stroke-miterlimit="1" stroke-width="1" points="2201,-50 1865,-35 2057,118" style="fill:#6143b9;stroke:#6143b9;"></polygon><polygon stroke-linejoin="round" stroke-miterlimit="1" stroke-width="1" points="2201,18 2201,-50 2057,118" style="fill:#6042b6;stroke:#6042b6;"></polygon><polygon stroke-linejoin="round" stroke-miterlimit="1" stroke-width="1" points="2201,18 2057,118 2201,234" style="fill:#6143b9;stroke:#6143b9;"></polygon><polygon stroke-linejoin="round" stroke-miterlimit="1" stroke-width="1" points="2174,355 2091,234 2047,321" style="fill:#6644c3;stroke:#6644c3;"></polygon><polygon stroke-linejoin="round" stroke-miterlimit="1" stroke-width="1" points="2164,791 2021,640 1957,868" style="fill:#6e47d3;stroke:#6e47d3;"></polygon><polygon stroke-linejoin="round" stroke-miterlimit="1" stroke-width="1" points="2141,998 1958,1041 2054,1099" style="fill:#6846c7;stroke:#6846c7;"></polygon><polygon stroke-linejoin="round" stroke-miterlimit="1" stroke-width="1" points="2141,998 1957,868 1958,1041" style="fill:#6c47ce;stroke:#6c47ce;"></polygon><polygon stroke-linejoin="round" stroke-miterlimit="1" stroke-width="1" points="2021,640 1951,395 1976,639" style="fill:#7247db;stroke:#7247db;"></polygon><polygon stroke-linejoin="round" stroke-miterlimit="1" stroke-width="1" points="2021,640 1976,639 1957,868" style="fill:#7348dd;stroke:#7348dd;"></polygon><polygon stroke-linejoin="round" stroke-miterlimit="1" stroke-width="1" points="2054,1099 1955,1052 1838,1099" style="fill:#6b47cd;stroke:#6b47cd;"></polygon><polygon stroke-linejoin="round" stroke-miterlimit="1" stroke-width="1" points="2091,234 2056,139 2047,321" style="fill:#6644c2;stroke:#6644c2;"></polygon><polygon stroke-linejoin="round" stroke-miterlimit="1" stroke-width="1" points="2047,321 1767,329 1951,395" style="fill:#6f46d6;stroke:#6f46d6;"></polygon><polygon stroke-linejoin="round" stroke-miterlimit="1" stroke-width="1" points="2054,1099 1958,1041 1955,1052" style="fill:#6a46cb;stroke:#6a46cb;"></polygon><polygon stroke-linejoin="round" stroke-miterlimit="1" stroke-width="1" points="2056,139 1767,329 2047,321" style="fill:#6b45cc;stroke:#6b45cc;"></polygon><polygon stroke-linejoin="round" stroke-miterlimit="1" stroke-width="1" points="2056,139 1844,22 1767,329" style="fill:#6945c9;stroke:#6945c9;"></polygon><polygon stroke-linejoin="round" stroke-miterlimit="1" stroke-width="1" points="2057,118 1844,22 2056,139" style="fill:#6444c0;stroke:#6444c0;"></polygon><polygon stroke-linejoin="round" stroke-miterlimit="1" stroke-width="1" points="2057,118 1865,-35 1844,22" style="fill:#6444bf;stroke:#6444bf;"></polygon><polygon stroke-linejoin="round" stroke-miterlimit="1" stroke-width="1" points="1958,1041 1957,868 1904,1019" style="fill:#6f48d6;stroke:#6f48d6;"></polygon><polygon stroke-linejoin="round" stroke-miterlimit="1" stroke-width="1" points="1844,22 1696,174 1767,329" style="fill:#6d46d1;stroke:#6d46d1;"></polygon><polygon stroke-linejoin="round" stroke-miterlimit="1" stroke-width="1" points="1976,639 1951,395 1752,525" style="fill:#7949e8;stroke:#7949e8;"></polygon><polygon stroke-linejoin="round" stroke-miterlimit="1" stroke-width="1" points="1976,639 1858,860 1957,868" style="fill:#7649e4;stroke:#7649e4;"></polygon><polygon stroke-linejoin="round" stroke-miterlimit="1" stroke-width="1" points="1957,868 1858,860 1865,864" style="fill:#774ae6;stroke:#774ae6;"></polygon><polygon stroke-linejoin="round" stroke-miterlimit="1" stroke-width="1" points="1957,868 1865,864 1904,1019" style="fill:#7449df;stroke:#7449df;"></polygon><polygon stroke-linejoin="round" stroke-miterlimit="1" stroke-width="1" points="1976,639 1752,525 1858,860" style="fill:#804bf7;stroke:#804bf7;"></polygon><polygon stroke-linejoin="round" stroke-miterlimit="1" stroke-width="1" points="1955,1052 1904,1019 1838,1099" style="fill:#6e48d4;stroke:#6e48d4;"></polygon><polygon stroke-linejoin="round" stroke-miterlimit="1" stroke-width="1" points="1958,1041 1904,1019 1955,1052" style="fill:#6d47d2;stroke:#6d47d2;"></polygon><polygon stroke-linejoin="round" stroke-miterlimit="1" stroke-width="1" points="1951,395 1767,329 1752,525" style="fill:#7a49ea;stroke:#7a49ea;"></polygon><polygon stroke-linejoin="round" stroke-miterlimit="1" stroke-width="1" points="1844,22 1689,140 1696,174" style="fill:#6b45cc;stroke:#6b45cc;"></polygon><polygon stroke-linejoin="round" stroke-miterlimit="1" stroke-width="1" points="1858,860 1752,525 1534,679" style="fill:#9d53ff;stroke:#9d53ff;"></polygon><polygon stroke-linejoin="round" stroke-miterlimit="1" stroke-width="1" points="1865,864 1858,860 1718,969" style="fill:#7d4cf2;stroke:#7d4cf2;"></polygon><polygon stroke-linejoin="round" stroke-miterlimit="1" stroke-width="1" points="1904,1019 1865,864 1718,969" style="fill:#784be8;stroke:#784be8;"></polygon><polygon stroke-linejoin="round" stroke-miterlimit="1" stroke-width="1" points="1904,1019 1718,969 1838,1099" style="fill:#744adf;stroke:#744adf;"></polygon><polygon stroke-linejoin="round" stroke-miterlimit="1" stroke-width="1" points="1838,1099 1423,994 1336,1099" style="fill:#7e4ff5;stroke:#7e4ff5;"></polygon><polygon stroke-linejoin="round" stroke-miterlimit="1" stroke-width="1" points="1858,860 1534,679 1718,969" style="fill:#9253ff;stroke:#9253ff;"></polygon><polygon stroke-linejoin="round" stroke-miterlimit="1" stroke-width="1" points="1865,-35 1685,-101 1844,22" style="fill:#6443bf;stroke:#6443bf;"></polygon><polygon stroke-linejoin="round" stroke-miterlimit="1" stroke-width="1" points="1838,1099 1718,969 1423,994" style="fill:#7e4ef5;stroke:#7e4ef5;"></polygon><polygon stroke-linejoin="round" stroke-miterlimit="1" stroke-width="1" points="1767,329 1677,366 1752,525" style="fill:#814bf9;stroke:#814bf9;"></polygon><polygon stroke-linejoin="round" stroke-miterlimit="1" stroke-width="1" points="1844,22 1685,-101 1689,140" style="fill:#6744c4;stroke:#6744c4;"></polygon><polygon stroke-linejoin="round" stroke-miterlimit="1" stroke-width="1" points="1718,969 1534,679 1426,874" style="fill:#af63ff;stroke:#af63ff;"></polygon><polygon stroke-linejoin="round" stroke-miterlimit="1" stroke-width="1" points="1752,525 1677,366 1646,376" style="fill:#874cff;stroke:#874cff;"></polygon><polygon stroke-linejoin="round" stroke-miterlimit="1" stroke-width="1" points="1767,329 1696,174 1677,366" style="fill:#7748e5;stroke:#7748e5;"></polygon><polygon stroke-linejoin="round" stroke-miterlimit="1" stroke-width="1" points="1752,525 1646,376 1535,463" style="fill:#924eff;stroke:#924eff;"></polygon><polygon stroke-linejoin="round" stroke-miterlimit="1" stroke-width="1" points="1752,525 1535,463 1534,679" style="fill:#b255ff;stroke:#b255ff;"></polygon><polygon stroke-linejoin="round" stroke-miterlimit="1" stroke-width="1" points="1534,679 1459,727 1426,874" style="fill:#e282ff;stroke:#e282ff;"></polygon><polygon stroke-linejoin="round" stroke-miterlimit="1" stroke-width="1" points="1689,140 1685,-101 1450,52" style="fill:#6945c8;stroke:#6945c8;"></polygon><polygon stroke-linejoin="round" stroke-miterlimit="1" stroke-width="1" points="1696,174 1646,376 1677,366" style="fill:#7b49ec;stroke:#7b49ec;"></polygon><polygon stroke-linejoin="round" stroke-miterlimit="1" stroke-width="1" points="1696,174 1506,317 1646,376" style="fill:#7b49ed;stroke:#7b49ed;"></polygon><polygon stroke-linejoin="round" stroke-miterlimit="1" stroke-width="1" points="1718,969 1426,874 1423,994" style="fill:#9359ff;stroke:#9359ff;"></polygon><polygon stroke-linejoin="round" stroke-miterlimit="1" stroke-width="1" points="1696,174 1689,140 1506,317" style="fill:#7347de;stroke:#7347de;"></polygon><polygon stroke-linejoin="round" stroke-miterlimit="1" stroke-width="1" points="1689,140 1406,116 1506,317" style="fill:#7347dd;stroke:#7347dd;"></polygon><polygon stroke-linejoin="round" stroke-miterlimit="1" stroke-width="1" points="1689,140 1450,52 1406,116" style="fill:#6d46d1;stroke:#6d46d1;"></polygon><polygon stroke-linejoin="round" stroke-miterlimit="1" stroke-width="1" points="1685,-101 1311,-80 1450,52" style="fill:#6644c3;stroke:#6644c3;"></polygon><polygon stroke-linejoin="round" stroke-miterlimit="1" stroke-width="1" points="1646,376 1506,317 1535,463" style="fill:#8b4dff;stroke:#8b4dff;"></polygon><polygon stroke-linejoin="round" stroke-miterlimit="1" stroke-width="1" points="1506,317 1406,116 1366,238" style="fill:#7648e2;stroke:#7648e2;"></polygon><polygon stroke-linejoin="round" stroke-miterlimit="1" stroke-width="1" points="1534,679 1296,644 1459,727" style="fill:#e175ff;stroke:#e175ff;"></polygon><polygon stroke-linejoin="round" stroke-miterlimit="1" stroke-width="1" points="1535,463 1431,337 1271,588" style="fill:#9b52ff;stroke:#9b52ff;"></polygon><polygon stroke-linejoin="round" stroke-miterlimit="1" stroke-width="1" points="1535,463 1296,644 1534,679" style="fill:#d261ff;stroke:#d261ff;"></polygon><polygon stroke-linejoin="round" stroke-miterlimit="1" stroke-width="1" points="1535,463 1271,588 1296,644" style="fill:#ad59ff;stroke:#ad59ff;"></polygon><polygon stroke-linejoin="round" stroke-miterlimit="1" stroke-width="1" points="1535,463 1506,317 1431,337" style="fill:#8a4dff;stroke:#8a4dff;"></polygon><polygon stroke-linejoin="round" stroke-miterlimit="1" stroke-width="1" points="1506,317 1366,238 1431,337" style="fill:#7e4af2;stroke:#7e4af2;"></polygon><polygon stroke-linejoin="round" stroke-miterlimit="1" stroke-width="1" points="1431,337 1185,374 1271,588" style="fill:#884eff;stroke:#884eff;"></polygon><polygon stroke-linejoin="round" stroke-miterlimit="1" stroke-width="1" points="1450,52 1311,-80 1312,96" style="fill:#6845c7;stroke:#6845c7;"></polygon><polygon stroke-linejoin="round" stroke-miterlimit="1" stroke-width="1" points="1459,727 1255,731 1426,874" style="fill:#c073ff;stroke:#c073ff;"></polygon><polygon stroke-linejoin="round" stroke-miterlimit="1" stroke-width="1" points="1459,727 1296,644 1255,731" style="fill:#b566ff;stroke:#b566ff;"></polygon><polygon stroke-linejoin="round" stroke-miterlimit="1" stroke-width="1" points="1426,874 1322,983 1423,994" style="fill:#8f58ff;stroke:#8f58ff;"></polygon><polygon stroke-linejoin="round" stroke-miterlimit="1" stroke-width="1" points="1426,874 1255,731 1234,806" style="fill:#9f60ff;stroke:#9f60ff;"></polygon><polygon stroke-linejoin="round" stroke-miterlimit="1" stroke-width="1" points="1450,52 1312,96 1406,116" style="fill:#6c46ce;stroke:#6c46ce;"></polygon><polygon stroke-linejoin="round" stroke-miterlimit="1" stroke-width="1" points="1423,994 1322,983 1336,1099" style="fill:#8151fb;stroke:#8151fb;"></polygon><polygon stroke-linejoin="round" stroke-miterlimit="1" stroke-width="1" points="1431,337 1366,238 1185,374" style="fill:#7c4aef;stroke:#7c4aef;"></polygon><polygon stroke-linejoin="round" stroke-miterlimit="1" stroke-width="1" points="1426,874 1234,806 1322,983" style="fill:#955bff;stroke:#955bff;"></polygon><polygon stroke-linejoin="round" stroke-miterlimit="1" stroke-width="1" points="1406,116 1312,96 1366,238" style="fill:#6f47d5;stroke:#6f47d5;"></polygon><polygon stroke-linejoin="round" stroke-miterlimit="1" stroke-width="1" points="1366,238 1312,96 1128,178" style="fill:#6e47d3;stroke:#6e47d3;"></polygon><polygon stroke-linejoin="round" stroke-miterlimit="1" stroke-width="1" points="1366,238 1128,178 1185,374" style="fill:#7348dc;stroke:#7348dc;"></polygon><polygon stroke-linejoin="round" stroke-miterlimit="1" stroke-width="1" points="1228,1008 1060,1027 1001,1099" style="fill:#704ad7;stroke:#704ad7;"></polygon><polygon stroke-linejoin="round" stroke-miterlimit="1" stroke-width="1" points="1312,96 1311,-80 1034,97" style="fill:#6745c5;stroke:#6745c5;"></polygon><polygon stroke-linejoin="round" stroke-miterlimit="1" stroke-width="1" points="1322,983 1234,806 1228,1008" style="fill:#8553ff;stroke:#8553ff;"></polygon><polygon stroke-linejoin="round" stroke-miterlimit="1" stroke-width="1" points="1336,1099 1322,983 1228,1008" style="fill:#7c4ff2;stroke:#7c4ff2;"></polygon><polygon stroke-linejoin="round" stroke-miterlimit="1" stroke-width="1" points="1336,1099 1228,1008 1001,1099" style="fill:#734bdf;stroke:#734bdf;"></polygon><polygon stroke-linejoin="round" stroke-miterlimit="1" stroke-width="1" points="1312,96 1034,97 1128,178" style="fill:#6945c9;stroke:#6945c9;"></polygon><polygon stroke-linejoin="round" stroke-miterlimit="1" stroke-width="1" points="1311,-80 1001,-101 1034,97" style="fill:#6344bd;stroke:#6344bd;"></polygon><polygon stroke-linejoin="round" stroke-miterlimit="1" stroke-width="1" points="1296,644 1271,588 1208,724" style="fill:#9958ff;stroke:#9958ff;"></polygon><polygon stroke-linejoin="round" stroke-miterlimit="1" stroke-width="1" points="1296,644 1208,724 1255,731" style="fill:#9859ff;stroke:#9859ff;"></polygon><polygon stroke-linejoin="round" stroke-miterlimit="1" stroke-width="1" points="1185,374 1049,373 967,462" style="fill:#7148da;stroke:#7148da;"></polygon><polygon stroke-linejoin="round" stroke-miterlimit="1" stroke-width="1" points="1234,806 1060,1027 1228,1008" style="fill:#7b4eee;stroke:#7b4eee;"></polygon><polygon stroke-linejoin="round" stroke-miterlimit="1" stroke-width="1" points="1271,588 1185,374 967,462" style="fill:#7b4bed;stroke:#7b4bed;"></polygon><polygon stroke-linejoin="round" stroke-miterlimit="1" stroke-width="1" points="1271,588 967,462 1103,698" style="fill:#7d4df1;stroke:#7d4df1;"></polygon><polygon stroke-linejoin="round" stroke-miterlimit="1" stroke-width="1" points="1271,588 1103,698 1158,713" style="fill:#8852ff;stroke:#8852ff;"></polygon><polygon stroke-linejoin="round" stroke-miterlimit="1" stroke-width="1" points="1271,588 1158,713 1208,724" style="fill:#8e54ff;stroke:#8e54ff;"></polygon><polygon stroke-linejoin="round" stroke-miterlimit="1" stroke-width="1" points="1104,754 1046,771 1060,1027" style="fill:#764ce5;stroke:#764ce5;"></polygon><polygon stroke-linejoin="round" stroke-miterlimit="1" stroke-width="1" points="1234,806 1104,754 1060,1027" style="fill:#7c4ef0;stroke:#7c4ef0;"></polygon><polygon stroke-linejoin="round" stroke-miterlimit="1" stroke-width="1" points="1255,731 1208,724 1234,806" style="fill:#9157ff;stroke:#9157ff;"></polygon><polygon stroke-linejoin="round" stroke-miterlimit="1" stroke-width="1" points="1001,1099 690,1030 486,1096" style="fill:#6144ba;stroke:#6144ba;"></polygon><polygon stroke-linejoin="round" stroke-miterlimit="1" stroke-width="1" points="1208,724 1158,713 1104,754" style="fill:#8451ff;stroke:#8451ff;"></polygon><polygon stroke-linejoin="round" stroke-miterlimit="1" stroke-width="1" points="1234,806 1208,724 1104,754" style="fill:#8753ff;stroke:#8753ff;"></polygon><polygon stroke-linejoin="round" stroke-miterlimit="1" stroke-width="1" points="1185,374 1128,178 1033,221" style="fill:#6d47d2;stroke:#6d47d2;"></polygon><polygon stroke-linejoin="round" stroke-miterlimit="1" stroke-width="1" points="1185,374 1033,221 1049,373" style="fill:#6f47d6;stroke:#6f47d6;"></polygon><polygon stroke-linejoin="round" stroke-miterlimit="1" stroke-width="1" points="1158,713 1103,698 1104,754" style="fill:#7f4ff7;stroke:#7f4ff7;"></polygon><polygon stroke-linejoin="round" stroke-miterlimit="1" stroke-width="1" points="1060,1027 1046,771 1012,1040" style="fill:#704ad9;stroke:#704ad9;"></polygon><polygon stroke-linejoin="round" stroke-miterlimit="1" stroke-width="1" points="1103,698 967,462 887,495" style="fill:#7049d8;stroke:#7049d8;"></polygon><polygon stroke-linejoin="round" stroke-miterlimit="1" stroke-width="1" points="1128,178 1034,97 1033,221" style="fill:#6845c7;stroke:#6845c7;"></polygon><polygon stroke-linejoin="round" stroke-miterlimit="1" stroke-width="1" points="1046,771 977,1043 1012,1040" style="fill:#6f49d5;stroke:#6f49d5;"></polygon><polygon stroke-linejoin="round" stroke-miterlimit="1" stroke-width="1" points="1046,771 841,923 977,1043" style="fill:#6c48d1;stroke:#6c48d1;"></polygon><polygon stroke-linejoin="round" stroke-miterlimit="1" stroke-width="1" points="1060,1027 1019,1041 1001,1099" style="fill:#6c48cf;stroke:#6c48cf;"></polygon><polygon stroke-linejoin="round" stroke-miterlimit="1" stroke-width="1" points="1103,698 822,611 1046,771" style="fill:#724adc;stroke:#724adc;"></polygon><polygon stroke-linejoin="round" stroke-miterlimit="1" stroke-width="1" points="1103,698 887,495 822,611" style="fill:#6e48d3;stroke:#6e48d3;"></polygon><polygon stroke-linejoin="round" stroke-miterlimit="1" stroke-width="1" points="1104,754 1103,698 1046,771" style="fill:#7a4ded;stroke:#7a4ded;"></polygon><polygon stroke-linejoin="round" stroke-miterlimit="1" stroke-width="1" points="1034,97 1001,-101 925,-101" style="fill:#6143b9;stroke:#6143b9;"></polygon><polygon stroke-linejoin="round" stroke-miterlimit="1" stroke-width="1" points="1034,97 925,-101 900,103" style="fill:#6243ba;stroke:#6243ba;"></polygon><polygon stroke-linejoin="round" stroke-miterlimit="1" stroke-width="1" points="1034,97 921,206 1033,221" style="fill:#6645c4;stroke:#6645c4;"></polygon><polygon stroke-linejoin="round" stroke-miterlimit="1" stroke-width="1" points="1049,373 1033,221 921,206" style="fill:#6946ca;stroke:#6946ca;"></polygon><polygon stroke-linejoin="round" stroke-miterlimit="1" stroke-width="1" points="1060,1027 1012,1040 1019,1041" style="fill:#6d48d1;stroke:#6d48d1;"></polygon><polygon stroke-linejoin="round" stroke-miterlimit="1" stroke-width="1" points="1049,373 921,206 967,462" style="fill:#6b46cd;stroke:#6b46cd;"></polygon><polygon stroke-linejoin="round" stroke-miterlimit="1" stroke-width="1" points="1034,97 900,103 921,206" style="fill:#6444bf;stroke:#6444bf;"></polygon><polygon stroke-linejoin="round" stroke-miterlimit="1" stroke-width="1" points="1046,771 822,611 841,923" style="fill:#6c48cf;stroke:#6c48cf;"></polygon><polygon stroke-linejoin="round" stroke-miterlimit="1" stroke-width="1" points="1019,1041 1012,1040 1001,1099" style="fill:#6b48ce;stroke:#6b48ce;"></polygon><polygon stroke-linejoin="round" stroke-miterlimit="1" stroke-width="1" points="967,462 921,206 841,202" style="fill:#6745c4;stroke:#6745c4;"></polygon><polygon stroke-linejoin="round" stroke-miterlimit="1" stroke-width="1" points="967,462 841,202 887,495" style="fill:#6846c8;stroke:#6846c8;"></polygon><polygon stroke-linejoin="round" stroke-miterlimit="1" stroke-width="1" points="1012,1040 977,1043 1001,1099" style="fill:#6a48cc;stroke:#6a48cc;"></polygon><polygon stroke-linejoin="round" stroke-miterlimit="1" stroke-width="1" points="1001,1099 977,1043 690,1030" style="fill:#6646c4;stroke:#6646c4;"></polygon><polygon stroke-linejoin="round" stroke-miterlimit="1" stroke-width="1" points="977,1043 841,923 690,1030" style="fill:#6646c3;stroke:#6646c3;"></polygon><polygon stroke-linejoin="round" stroke-miterlimit="1" stroke-width="1" points="925,-101 788,-101 900,103" style="fill:#5f43b5;stroke:#5f43b5;"></polygon><polygon stroke-linejoin="round" stroke-miterlimit="1" stroke-width="1" points="841,923 822,611 678,926" style="fill:#6645c3;stroke:#6645c3;"></polygon><polygon stroke-linejoin="round" stroke-miterlimit="1" stroke-width="1" points="887,495 841,202 568,497" style="fill:#6444be;stroke:#6444be;"></polygon><polygon stroke-linejoin="round" stroke-miterlimit="1" stroke-width="1" points="900,103 788,-101 853,116" style="fill:#6043b7;stroke:#6043b7;"></polygon><polygon stroke-linejoin="round" stroke-miterlimit="1" stroke-width="1" points="921,206 900,103 853,116" style="fill:#6344bd;stroke:#6344bd;"></polygon><polygon stroke-linejoin="round" stroke-miterlimit="1" stroke-width="1" points="921,206 853,116 841,202" style="fill:#6344bd;stroke:#6344bd;"></polygon><polygon stroke-linejoin="round" stroke-miterlimit="1" stroke-width="1" points="822,611 576,789 678,926" style="fill:#6344bd;stroke:#6344bd;"></polygon><polygon stroke-linejoin="round" stroke-miterlimit="1" stroke-width="1" points="841,202 782,166 568,497" style="fill:#6143ba;stroke:#6143ba;"></polygon><polygon stroke-linejoin="round" stroke-miterlimit="1" stroke-width="1" points="419,-101 -47,-101 111,-66" style="fill:#5640a4;stroke:#5640a4;"></polygon><polygon stroke-linejoin="round" stroke-miterlimit="1" stroke-width="1" points="853,116 788,-101 761,-101" style="fill:#5e42b3;stroke:#5e42b3;"></polygon><polygon stroke-linejoin="round" stroke-miterlimit="1" stroke-width="1" points="887,495 568,497 822,611" style="fill:#6545c1;stroke:#6545c1;"></polygon><polygon stroke-linejoin="round" stroke-miterlimit="1" stroke-width="1" points="782,166 556,488 568,497" style="fill:#6043b7;stroke:#6043b7;"></polygon><polygon stroke-linejoin="round" stroke-miterlimit="1" stroke-width="1" points="841,923 678,926 690,1030" style="fill:#6345bd;stroke:#6345bd;"></polygon><polygon stroke-linejoin="round" stroke-miterlimit="1" stroke-width="1" points="853,116 761,-101 782,166" style="fill:#5f43b6;stroke:#5f43b6;"></polygon><polygon stroke-linejoin="round" stroke-miterlimit="1" stroke-width="1" points="853,116 782,166 841,202" style="fill:#6243ba;stroke:#6243ba;"></polygon><polygon stroke-linejoin="round" stroke-miterlimit="1" stroke-width="1" points="678,926 576,789 581,830" style="fill:#6044b8;stroke:#6044b8;"></polygon><polygon stroke-linejoin="round" stroke-miterlimit="1" stroke-width="1" points="782,166 454,168 556,488" style="fill:#5e43b3;stroke:#5e43b3;"></polygon><polygon stroke-linejoin="round" stroke-miterlimit="1" stroke-width="1" points="822,611 568,497 576,789" style="fill:#6244bb;stroke:#6244bb;"></polygon><polygon stroke-linejoin="round" stroke-miterlimit="1" stroke-width="1" points="761,-101 436,-70 454,168" style="fill:#5b41ad;stroke:#5b41ad;"></polygon><polygon stroke-linejoin="round" stroke-miterlimit="1" stroke-width="1" points="782,166 761,-101 454,168" style="fill:#5d42b2;stroke:#5d42b2;"></polygon><polygon stroke-linejoin="round" stroke-miterlimit="1" stroke-width="1" points="556,488 454,168 409,235" style="fill:#5c42af;stroke:#5c42af;"></polygon><polygon stroke-linejoin="round" stroke-miterlimit="1" stroke-width="1" points="761,-101 419,-101 436,-70" style="fill:#5a41ab;stroke:#5a41ab;"></polygon><polygon stroke-linejoin="round" stroke-miterlimit="1" stroke-width="1" points="556,488 409,235 413,436" style="fill:#5c42b0;stroke:#5c42b0;"></polygon><polygon stroke-linejoin="round" stroke-miterlimit="1" stroke-width="1" points="678,926 581,830 646,936" style="fill:#6144b8;stroke:#6144b8;"></polygon><polygon stroke-linejoin="round" stroke-miterlimit="1" stroke-width="1" points="690,1030 646,936 518,1032" style="fill:#5f43b6;stroke:#5f43b6;"></polygon><polygon stroke-linejoin="round" stroke-miterlimit="1" stroke-width="1" points="690,1030 518,1032 486,1096" style="fill:#5e43b3;stroke:#5e43b3;"></polygon><polygon stroke-linejoin="round" stroke-miterlimit="1" stroke-width="1" points="690,1030 678,926 646,936" style="fill:#6144b9;stroke:#6144b9;"></polygon><polygon stroke-linejoin="round" stroke-miterlimit="1" stroke-width="1" points="568,497 427,491 517,806" style="fill:#5e43b3;stroke:#5e43b3;"></polygon><polygon stroke-linejoin="round" stroke-miterlimit="1" stroke-width="1" points="576,789 568,497 517,806" style="fill:#5f43b5;stroke:#5f43b5;"></polygon><polygon stroke-linejoin="round" stroke-miterlimit="1" stroke-width="1" points="646,936 581,830 552,857" style="fill:#6043b6;stroke:#6043b6;"></polygon><polygon stroke-linejoin="round" stroke-miterlimit="1" stroke-width="1" points="646,936 552,857 518,1032" style="fill:#5f43b5;stroke:#5f43b5;"></polygon><polygon stroke-linejoin="round" stroke-miterlimit="1" stroke-width="1" points="552,857 459,919 518,1032" style="fill:#5d43b2;stroke:#5d43b2;"></polygon><polygon stroke-linejoin="round" stroke-miterlimit="1" stroke-width="1" points="568,497 556,488 427,491" style="fill:#5e43b3;stroke:#5e43b3;"></polygon><polygon stroke-linejoin="round" stroke-miterlimit="1" stroke-width="1" points="581,830 576,789 517,806" style="fill:#5f43b5;stroke:#5f43b5;"></polygon><polygon stroke-linejoin="round" stroke-miterlimit="1" stroke-width="1" points="581,830 517,806 552,857" style="fill:#5f43b5;stroke:#5f43b5;"></polygon><polygon stroke-linejoin="round" stroke-miterlimit="1" stroke-width="1" points="556,488 413,436 427,491" style="fill:#5d42b1;stroke:#5d42b1;"></polygon><polygon stroke-linejoin="round" stroke-miterlimit="1" stroke-width="1" points="517,806 427,491 153,656" style="fill:#5b42ae;stroke:#5b42ae;"></polygon><polygon stroke-linejoin="round" stroke-miterlimit="1" stroke-width="1" points="552,857 506,839 459,919" style="fill:#5e43b3;stroke:#5e43b3;"></polygon><polygon stroke-linejoin="round" stroke-miterlimit="1" stroke-width="1" points="552,857 517,806 506,839" style="fill:#5e43b4;stroke:#5e43b4;"></polygon><polygon stroke-linejoin="round" stroke-miterlimit="1" stroke-width="1" points="427,491 301,471 153,656" style="fill:#5a41ab;stroke:#5a41ab;"></polygon><polygon stroke-linejoin="round" stroke-miterlimit="1" stroke-width="1" points="454,168 436,-70 257,58" style="fill:#5941a9;stroke:#5941a9;"></polygon><polygon stroke-linejoin="round" stroke-miterlimit="1" stroke-width="1" points="517,806 153,656 506,839" style="fill:#5c42af;stroke:#5c42af;"></polygon><polygon stroke-linejoin="round" stroke-miterlimit="1" stroke-width="1" points="518,1032 459,919 486,1096" style="fill:#5d42b0;stroke:#5d42b0;"></polygon><polygon stroke-linejoin="round" stroke-miterlimit="1" stroke-width="1" points="506,839 153,656 459,919" style="fill:#5b42ae;stroke:#5b42ae;"></polygon><polygon stroke-linejoin="round" stroke-miterlimit="1" stroke-width="1" points="459,919 153,656 92,854" style="fill:#5941aa;stroke:#5941aa;"></polygon><polygon stroke-linejoin="round" stroke-miterlimit="1" stroke-width="1" points="486,1096 459,919 238,1099" style="fill:#5b42ad;stroke:#5b42ad;"></polygon><polygon stroke-linejoin="round" stroke-miterlimit="1" stroke-width="1" points="459,919 92,854 238,1099" style="fill:#5941aa;stroke:#5941aa;"></polygon><polygon stroke-linejoin="round" stroke-miterlimit="1" stroke-width="1" points="301,471 220,496 153,656" style="fill:#5941aa;stroke:#5941aa;"></polygon><polygon stroke-linejoin="round" stroke-miterlimit="1" stroke-width="1" points="413,436 409,235 301,471" style="fill:#5b42ad;stroke:#5b42ad;"></polygon><polygon stroke-linejoin="round" stroke-miterlimit="1" stroke-width="1" points="454,168 257,58 409,235" style="fill:#5a41ab;stroke:#5a41ab;"></polygon><polygon stroke-linejoin="round" stroke-miterlimit="1" stroke-width="1" points="436,-70 419,-101 257,58" style="fill:#5941a8;stroke:#5941a8;"></polygon><polygon stroke-linejoin="round" stroke-miterlimit="1" stroke-width="1" points="409,235 138,250 301,471" style="fill:#5941aa;stroke:#5941aa;"></polygon><polygon stroke-linejoin="round" stroke-miterlimit="1" stroke-width="1" points="427,491 413,436 301,471" style="fill:#5b42ae;stroke:#5b42ae;"></polygon><polygon stroke-linejoin="round" stroke-miterlimit="1" stroke-width="1" points="419,-101 111,-66 257,58" style="fill:#5840a6;stroke:#5840a6;"></polygon><polygon stroke-linejoin="round" stroke-miterlimit="1" stroke-width="1" points="409,235 257,58 138,250" style="fill:#5941a8;stroke:#5941a8;"></polygon><polygon stroke-linejoin="round" stroke-miterlimit="1" stroke-width="1" points="195,1099 92,854 96,1054" style="fill:#5841a7;stroke:#5841a7;"></polygon><polygon stroke-linejoin="round" stroke-miterlimit="1" stroke-width="1" points="238,1099 92,854 195,1099" style="fill:#5841a8;stroke:#5841a8;"></polygon><polygon stroke-linejoin="round" stroke-miterlimit="1" stroke-width="1" points="257,58 80,120 138,250" style="fill:#5740a6;stroke:#5740a6;"></polygon><polygon stroke-linejoin="round" stroke-miterlimit="1" stroke-width="1" points="301,471 121,402 220,496" style="fill:#5941a9;stroke:#5941a9;"></polygon><polygon stroke-linejoin="round" stroke-miterlimit="1" stroke-width="1" points="301,471 138,250 121,402" style="fill:#5841a8;stroke:#5841a8;"></polygon><polygon stroke-linejoin="round" stroke-miterlimit="1" stroke-width="1" points="156,1099 87,1062 -175,1099" style="fill:#5740a4;stroke:#5740a4;"></polygon><polygon stroke-linejoin="round" stroke-miterlimit="1" stroke-width="1" points="178,500 135,532 153,656" style="fill:#5841a8;stroke:#5841a8;"></polygon><polygon stroke-linejoin="round" stroke-miterlimit="1" stroke-width="1" points="195,1099 96,1054 156,1099" style="fill:#5841a7;stroke:#5841a7;"></polygon><polygon stroke-linejoin="round" stroke-miterlimit="1" stroke-width="1" points="220,496 121,402 178,500" style="fill:#5841a8;stroke:#5841a8;"></polygon><polygon stroke-linejoin="round" stroke-miterlimit="1" stroke-width="1" points="220,496 178,500 153,656" style="fill:#5941a9;stroke:#5941a9;"></polygon><polygon stroke-linejoin="round" stroke-miterlimit="1" stroke-width="1" points="257,58 111,-66 80,120" style="fill:#5740a5;stroke:#5740a5;"></polygon><polygon stroke-linejoin="round" stroke-miterlimit="1" stroke-width="1" points="156,1099 98,1067 87,1062" style="fill:#5741a6;stroke:#5741a6;"></polygon><polygon stroke-linejoin="round" stroke-miterlimit="1" stroke-width="1" points="153,656 -34,817 92,854" style="fill:#5741a6;stroke:#5741a6;"></polygon><polygon stroke-linejoin="round" stroke-miterlimit="1" stroke-width="1" points="156,1099 96,1054 98,1067" style="fill:#5741a6;stroke:#5741a6;"></polygon><polygon stroke-linejoin="round" stroke-miterlimit="1" stroke-width="1" points="178,500 121,402 135,532" style="fill:#5841a7;stroke:#5841a7;"></polygon><polygon stroke-linejoin="round" stroke-miterlimit="1" stroke-width="1" points="138,250 -79,383 121,402" style="fill:#5740a5;stroke:#5740a5;"></polygon><polygon stroke-linejoin="round" stroke-miterlimit="1" stroke-width="1" points="153,656 135,532 -47,446" style="fill:#5841a6;stroke:#5841a6;"></polygon><polygon stroke-linejoin="round" stroke-miterlimit="1" stroke-width="1" points="153,656 -47,446 -199,626" style="fill:#5640a4;stroke:#5640a4;"></polygon><polygon stroke-linejoin="round" stroke-miterlimit="1" stroke-width="1" points="153,656 -199,626 -34,817" style="fill:#5740a4;stroke:#5740a4;"></polygon><polygon stroke-linejoin="round" stroke-miterlimit="1" stroke-width="1" points="135,532 121,402 -47,446" style="fill:#5740a6;stroke:#5740a6;"></polygon><polygon stroke-linejoin="round" stroke-miterlimit="1" stroke-width="1" points="138,250 80,120 -79,383" style="fill:#5740a4;stroke:#5740a4;"></polygon><polygon stroke-linejoin="round" stroke-miterlimit="1" stroke-width="1" points="96,1054 92,854 -34,817" style="fill:#5740a5;stroke:#5740a5;"></polygon><polygon stroke-linejoin="round" stroke-miterlimit="1" stroke-width="1" points="111,-66 -47,-101 80,120" style="fill:#5640a3;stroke:#5640a3;"></polygon><polygon stroke-linejoin="round" stroke-miterlimit="1" stroke-width="1" points="-34,817 -199,626 -197,685" style="fill:#5640a2;stroke:#5640a2;"></polygon><polygon stroke-linejoin="round" stroke-miterlimit="1" stroke-width="1" points="96,1054 -34,817 87,1062" style="fill:#5740a5;stroke:#5740a5;"></polygon><polygon stroke-linejoin="round" stroke-miterlimit="1" stroke-width="1" points="121,402 -79,383 -47,446" style="fill:#5740a4;stroke:#5740a4;"></polygon><polygon stroke-linejoin="round" stroke-miterlimit="1" stroke-width="1" points="80,120 -199,178 -79,383" style="fill:#5640a2;stroke:#5640a2;"></polygon><polygon stroke-linejoin="round" stroke-miterlimit="1" stroke-width="1" points="87,1062 -34,817 -199,1009" style="fill:#5640a3;stroke:#5640a3;"></polygon><polygon stroke-linejoin="round" stroke-miterlimit="1" stroke-width="1" points="80,120 -47,-101 -187,-5" style="fill:#5540a1;stroke:#5540a1;"></polygon><polygon stroke-linejoin="round" stroke-miterlimit="1" stroke-width="1" points="87,1062 -199,1009 -193,1040" style="fill:#5640a2;stroke:#5640a2;"></polygon><polygon stroke-linejoin="round" stroke-miterlimit="1" stroke-width="1" points="98,1067 96,1054 87,1062" style="fill:#5741a6;stroke:#5741a6;"></polygon><polygon stroke-linejoin="round" stroke-miterlimit="1" stroke-width="1" points="80,120 -199,178 -199,178" style="fill:#493c88;stroke:#493c88;"></polygon><polygon stroke-linejoin="round" stroke-miterlimit="1" stroke-width="1" points="87,1062 -193,1040 -175,1099" style="fill:#5640a2;stroke:#5640a2;"></polygon><polygon stroke-linejoin="round" stroke-miterlimit="1" stroke-width="1" points="-47,446 -199,549 -199,626" style="fill:#5540a2;stroke:#5540a2;"></polygon><polygon stroke-linejoin="round" stroke-miterlimit="1" stroke-width="1" points="80,120 -187,-5 -199,178" style="fill:#5540a1;stroke:#5540a1;"></polygon><polygon stroke-linejoin="round" stroke-miterlimit="1" stroke-width="1" points="-79,383 -199,178 -199,327" style="fill:#5540a1;stroke:#5540a1;"></polygon><polygon stroke-linejoin="round" stroke-miterlimit="1" stroke-width="1" points="-47,-101 -135,-101 -187,-5" style="fill:#5540a0;stroke:#5540a0;"></polygon><polygon stroke-linejoin="round" stroke-miterlimit="1" stroke-width="1" points="-47,446 -199,499 -199,549" style="fill:#5540a2;stroke:#5540a2;"></polygon><polygon stroke-linejoin="round" stroke-miterlimit="1" stroke-width="1" points="-34,817 -197,685 -199,1009" style="fill:#5640a2;stroke:#5640a2;"></polygon><polygon stroke-linejoin="round" stroke-miterlimit="1" stroke-width="1" points="-47,446 -79,383 -199,499" style="fill:#5640a2;stroke:#5640a2;"></polygon><polygon stroke-linejoin="round" stroke-miterlimit="1" stroke-width="1" points="-79,383 -199,327 -199,499" style="fill:#5540a2;stroke:#5540a2;"></polygon><polygon stroke-linejoin="round" stroke-miterlimit="1" stroke-width="1" points="-175,1099 -193,1040 -199,1050" style="fill:#5540a1;stroke:#5540a1;"></polygon><polygon stroke-linejoin="round" stroke-miterlimit="1" stroke-width="1" points="-135,-101 -199,-101 -187,-5" style="fill:#543f9f;stroke:#543f9f;"></polygon><polygon stroke-linejoin="round" stroke-miterlimit="1" stroke-width="1" points="-175,1099 -199,1050 -199,1099" style="fill:#5540a1;stroke:#5540a1;"></polygon><polygon stroke-linejoin="round" stroke-miterlimit="1" stroke-width="1" points="-187,-5 -199,-101 -199,178" style="fill:#543fa0;stroke:#543fa0;"></polygon><polygon stroke-linejoin="round" stroke-miterlimit="1" stroke-width="1" points="-193,1040 -199,1009 -199,1050" style="fill:#5540a1;stroke:#5540a1;"></polygon><polygon stroke-linejoin="round" stroke-miterlimit="1" stroke-width="1" points="-197,685 -199,626 -199,1009" style="fill:#5540a1;stroke:#5540a1;"></polygon></svg>