
      <svg xmlns="http://www.w3.org/2000/svg" version="1.1" width="2000" height="1000" style="display: block;"><polygon stroke-linejoin="round" stroke-miterlimit="1" stroke-width="1" points="569,-101 -199,-101 248,-79" style="fill:#e76eff;stroke:#e76eff;"></polygon><polygon stroke-linejoin="round" stroke-miterlimit="1" stroke-width="1" points="2187,30 2085,74 2159,143" style="fill:#ffbdff;stroke:#ffbdff;"></polygon><polygon stroke-linejoin="round" stroke-miterlimit="1" stroke-width="1" points="2201,-52 2175,3 2187,30" style="fill:#f3a5ff;stroke:#f3a5ff;"></polygon><polygon stroke-linejoin="round" stroke-miterlimit="1" stroke-width="1" points="2201,-52 2179,-44 2175,3" style="fill:#ffaaff;stroke:#ffaaff;"></polygon><polygon stroke-linejoin="round" stroke-miterlimit="1" stroke-width="1" points="2201,255 2084,213 2161,323" style="fill:#e996ff;stroke:#e996ff;"></polygon><polygon stroke-linejoin="round" stroke-miterlimit="1" stroke-width="1" points="2201,255 2159,143 2084,213" style="fill:#f5a1ff;stroke:#f5a1ff;"></polygon><polygon stroke-linejoin="round" stroke-miterlimit="1" stroke-width="1" points="2201,255 2187,30 2159,143" style="fill:#eda1ff;stroke:#eda1ff;"></polygon><polygon stroke-linejoin="round" stroke-miterlimit="1" stroke-width="1" points="2201,255 2201,-52 2187,30" style="fill:#e59fff;stroke:#e59fff;"></polygon><polygon stroke-linejoin="round" stroke-miterlimit="1" stroke-width="1" points="2201,-101 2179,-44 2201,-52" style="fill:#ffb2ff;stroke:#ffb2ff;"></polygon><polygon stroke-linejoin="round" stroke-miterlimit="1" stroke-width="1" points="2201,-101 1928,-101 2179,-44" style="fill:#f9a6ff;stroke:#f9a6ff;"></polygon><polygon stroke-linejoin="round" stroke-miterlimit="1" stroke-width="1" points="2201,901 2030,837 2151,1001" style="fill:#b06fff;stroke:#b06fff;"></polygon><polygon stroke-linejoin="round" stroke-miterlimit="1" stroke-width="1" points="2201,901 2151,1001 2201,1051" style="fill:#cb79ff;stroke:#cb79ff;"></polygon><polygon stroke-linejoin="round" stroke-miterlimit="1" stroke-width="1" points="2201,869 2030,837 2201,901" style="fill:#c47dff;stroke:#c47dff;"></polygon><polygon stroke-linejoin="round" stroke-miterlimit="1" stroke-width="1" points="2201,499 1908,632 2193,600" style="fill:#b677ff;stroke:#b677ff;"></polygon><polygon stroke-linejoin="round" stroke-miterlimit="1" stroke-width="1" points="2201,499 2161,323 1908,632" style="fill:#be7dff;stroke:#be7dff;"></polygon><polygon stroke-linejoin="round" stroke-miterlimit="1" stroke-width="1" points="2201,499 2201,255 2161,323" style="fill:#b476ff;stroke:#b476ff;"></polygon><polygon stroke-linejoin="round" stroke-miterlimit="1" stroke-width="1" points="2201,1099 1957,1092 1669,1099" style="fill:#8d56ff;stroke:#8d56ff;"></polygon><polygon stroke-linejoin="round" stroke-miterlimit="1" stroke-width="1" points="2201,1099 2201,1051 2151,1001" style="fill:#ab6bff;stroke:#ab6bff;"></polygon><polygon stroke-linejoin="round" stroke-miterlimit="1" stroke-width="1" points="2201,1099 2151,1001 1957,1092" style="fill:#bf76ff;stroke:#bf76ff;"></polygon><polygon stroke-linejoin="round" stroke-miterlimit="1" stroke-width="1" points="2201,795 2030,837 2201,869" style="fill:#bd77ff;stroke:#bd77ff;"></polygon><polygon stroke-linejoin="round" stroke-miterlimit="1" stroke-width="1" points="2201,739 2193,600 1936,730" style="fill:#b776ff;stroke:#b776ff;"></polygon><polygon stroke-linejoin="round" stroke-miterlimit="1" stroke-width="1" points="2201,739 1936,730 2030,837" style="fill:#b774ff;stroke:#b774ff;"></polygon><polygon stroke-linejoin="round" stroke-miterlimit="1" stroke-width="1" points="2201,739 2030,837 2201,795" style="fill:#b673ff;stroke:#b673ff;"></polygon><polygon stroke-linejoin="round" stroke-miterlimit="1" stroke-width="1" points="2201,739 2201,499 2193,600" style="fill:#9960ff;stroke:#9960ff;"></polygon><polygon stroke-linejoin="round" stroke-miterlimit="1" stroke-width="1" points="2161,323 1787,485 1908,632" style="fill:#c281ff;stroke:#c281ff;"></polygon><polygon stroke-linejoin="round" stroke-miterlimit="1" stroke-width="1" points="2193,600 1908,632 1936,730" style="fill:#b476ff;stroke:#b476ff;"></polygon><polygon stroke-linejoin="round" stroke-miterlimit="1" stroke-width="1" points="2151,1001 2030,837 1986,915" style="fill:#b875ff;stroke:#b875ff;"></polygon><polygon stroke-linejoin="round" stroke-miterlimit="1" stroke-width="1" points="2187,30 2175,3 2085,74" style="fill:#ffc6ff;stroke:#ffc6ff;"></polygon><polygon stroke-linejoin="round" stroke-miterlimit="1" stroke-width="1" points="2161,323 1905,231 1787,485" style="fill:#d38bff;stroke:#d38bff;"></polygon><polygon stroke-linejoin="round" stroke-miterlimit="1" stroke-width="1" points="2179,-44 2085,74 2175,3" style="fill:#ffb7ff;stroke:#ffb7ff;"></polygon><polygon stroke-linejoin="round" stroke-miterlimit="1" stroke-width="1" points="2179,-44 1928,-101 2085,74" style="fill:#ffb9ff;stroke:#ffb9ff;"></polygon><polygon stroke-linejoin="round" stroke-miterlimit="1" stroke-width="1" points="2161,323 2084,213 1905,231" style="fill:#dd95ff;stroke:#dd95ff;"></polygon><polygon stroke-linejoin="round" stroke-miterlimit="1" stroke-width="1" points="2159,143 2085,74 2084,213" style="fill:#ffb5ff;stroke:#ffb5ff;"></polygon><polygon stroke-linejoin="round" stroke-miterlimit="1" stroke-width="1" points="2151,1001 1986,915 1957,1092" style="fill:#a66aff;stroke:#a66aff;"></polygon><polygon stroke-linejoin="round" stroke-miterlimit="1" stroke-width="1" points="1562,-67 1001,-101 1429,-38" style="fill:#b56cff;stroke:#b56cff;"></polygon><polygon stroke-linejoin="round" stroke-miterlimit="1" stroke-width="1" points="1655,-101 1001,-101 1562,-67" style="fill:#bf74ff;stroke:#bf74ff;"></polygon><polygon stroke-linejoin="round" stroke-miterlimit="1" stroke-width="1" points="2030,837 1936,730 1988,835" style="fill:#b974ff;stroke:#b974ff;"></polygon><polygon stroke-linejoin="round" stroke-miterlimit="1" stroke-width="1" points="2085,74 1928,-101 1806,19" style="fill:#f0a0ff;stroke:#f0a0ff;"></polygon><polygon stroke-linejoin="round" stroke-miterlimit="1" stroke-width="1" points="2085,74 1806,19 1905,231" style="fill:#ed9fff;stroke:#ed9fff;"></polygon><polygon stroke-linejoin="round" stroke-miterlimit="1" stroke-width="1" points="2085,74 1905,231 2084,213" style="fill:#eda4ff;stroke:#eda4ff;"></polygon><polygon stroke-linejoin="round" stroke-miterlimit="1" stroke-width="1" points="1928,-101 1919,-101 1806,19" style="fill:#e271ff;stroke:#e271ff;"></polygon><polygon stroke-linejoin="round" stroke-miterlimit="1" stroke-width="1" points="2030,837 1988,835 1986,915" style="fill:#9c65ff;stroke:#9c65ff;"></polygon><polygon stroke-linejoin="round" stroke-miterlimit="1" stroke-width="1" points="1986,915 1814,881 1957,1092" style="fill:#b373ff;stroke:#b373ff;"></polygon><polygon stroke-linejoin="round" stroke-miterlimit="1" stroke-width="1" points="1988,835 1814,881 1986,915" style="fill:#bd78ff;stroke:#bd78ff;"></polygon><polygon stroke-linejoin="round" stroke-miterlimit="1" stroke-width="1" points="1988,835 1936,730 1814,881" style="fill:#ac71ff;stroke:#ac71ff;"></polygon><polygon stroke-linejoin="round" stroke-miterlimit="1" stroke-width="1" points="1151,1099 1032,1096 1001,1099" style="fill:#ac68ff;stroke:#ac68ff;"></polygon><polygon stroke-linejoin="round" stroke-miterlimit="1" stroke-width="1" points="1957,1092 1814,881 1669,1099" style="fill:#b370ff;stroke:#b370ff;"></polygon><polygon stroke-linejoin="round" stroke-miterlimit="1" stroke-width="1" points="1905,231 1806,19 1727,67" style="fill:#d18aff;stroke:#d18aff;"></polygon><polygon stroke-linejoin="round" stroke-miterlimit="1" stroke-width="1" points="1919,-101 1807,-101 1806,19" style="fill:#d68eff;stroke:#d68eff;"></polygon><polygon stroke-linejoin="round" stroke-miterlimit="1" stroke-width="1" points="1936,730 1908,632 1751,638" style="fill:#b77aff;stroke:#b77aff;"></polygon><polygon stroke-linejoin="round" stroke-miterlimit="1" stroke-width="1" points="1936,730 1751,638 1814,881" style="fill:#c380ff;stroke:#c380ff;"></polygon><polygon stroke-linejoin="round" stroke-miterlimit="1" stroke-width="1" points="1908,632 1787,485 1754,511" style="fill:#c68aff;stroke:#c68aff;"></polygon><polygon stroke-linejoin="round" stroke-miterlimit="1" stroke-width="1" points="1814,881 1657,963 1669,1099" style="fill:#c278ff;stroke:#c278ff;"></polygon><polygon stroke-linejoin="round" stroke-miterlimit="1" stroke-width="1" points="1905,231 1574,362 1787,485" style="fill:#cf8bff;stroke:#cf8bff;"></polygon><polygon stroke-linejoin="round" stroke-miterlimit="1" stroke-width="1" points="1905,231 1578,242 1574,362" style="fill:#cc86ff;stroke:#cc86ff;"></polygon><polygon stroke-linejoin="round" stroke-miterlimit="1" stroke-width="1" points="1908,632 1754,511 1751,638" style="fill:#c688ff;stroke:#c688ff;"></polygon><polygon stroke-linejoin="round" stroke-miterlimit="1" stroke-width="1" points="1905,231 1727,67 1677,83" style="fill:#cd88ff;stroke:#cd88ff;"></polygon><polygon stroke-linejoin="round" stroke-miterlimit="1" stroke-width="1" points="1905,231 1677,83 1578,242" style="fill:#cc84ff;stroke:#cc84ff;"></polygon><polygon stroke-linejoin="round" stroke-miterlimit="1" stroke-width="1" points="1787,485 1574,362 1754,511" style="fill:#d093ff;stroke:#d093ff;"></polygon><polygon stroke-linejoin="round" stroke-miterlimit="1" stroke-width="1" points="1806,19 1724,52 1727,67" style="fill:#cf86ff;stroke:#cf86ff;"></polygon><polygon stroke-linejoin="round" stroke-miterlimit="1" stroke-width="1" points="1807,-101 1724,52 1806,19" style="fill:#ca87ff;stroke:#ca87ff;"></polygon><polygon stroke-linejoin="round" stroke-miterlimit="1" stroke-width="1" points="1807,-101 1655,-101 1724,52" style="fill:#c37fff;stroke:#c37fff;"></polygon><polygon stroke-linejoin="round" stroke-miterlimit="1" stroke-width="1" points="1814,881 1751,638 1623,670" style="fill:#c588ff;stroke:#c588ff;"></polygon><polygon stroke-linejoin="round" stroke-miterlimit="1" stroke-width="1" points="1814,881 1623,670 1657,963" style="fill:#c17dff;stroke:#c17dff;"></polygon><polygon stroke-linejoin="round" stroke-miterlimit="1" stroke-width="1" points="1754,511 1574,362 1644,527" style="fill:#d499ff;stroke:#d499ff;"></polygon><polygon stroke-linejoin="round" stroke-miterlimit="1" stroke-width="1" points="1657,963 1623,670 1504,745" style="fill:#ba81ff;stroke:#ba81ff;"></polygon><polygon stroke-linejoin="round" stroke-miterlimit="1" stroke-width="1" points="1657,963 1504,745 1485,830" style="fill:#b577ff;stroke:#b577ff;"></polygon><polygon stroke-linejoin="round" stroke-miterlimit="1" stroke-width="1" points="1751,638 1644,527 1620,580" style="fill:#dea5ff;stroke:#dea5ff;"></polygon><polygon stroke-linejoin="round" stroke-miterlimit="1" stroke-width="1" points="1754,511 1644,527 1751,638" style="fill:#d89dff;stroke:#d89dff;"></polygon><polygon stroke-linejoin="round" stroke-miterlimit="1" stroke-width="1" points="1751,638 1620,580 1623,670" style="fill:#d09aff;stroke:#d09aff;"></polygon><polygon stroke-linejoin="round" stroke-miterlimit="1" stroke-width="1" points="1429,-38 1001,-101 1305,-12" style="fill:#b56bff;stroke:#b56bff;"></polygon><polygon stroke-linejoin="round" stroke-miterlimit="1" stroke-width="1" points="1669,1099 1459,1082 1436,1099" style="fill:#fe9aff;stroke:#fe9aff;"></polygon><polygon stroke-linejoin="round" stroke-miterlimit="1" stroke-width="1" points="1677,83 1655,-101 1562,-67" style="fill:#c47eff;stroke:#c47eff;"></polygon><polygon stroke-linejoin="round" stroke-miterlimit="1" stroke-width="1" points="1724,52 1655,-101 1677,83" style="fill:#c281ff;stroke:#c281ff;"></polygon><polygon stroke-linejoin="round" stroke-miterlimit="1" stroke-width="1" points="1727,67 1724,52 1677,83" style="fill:#c98bff;stroke:#c98bff;"></polygon><polygon stroke-linejoin="round" stroke-miterlimit="1" stroke-width="1" points="1644,527 1574,362 1511,481" style="fill:#cf96ff;stroke:#cf96ff;"></polygon><polygon stroke-linejoin="round" stroke-miterlimit="1" stroke-width="1" points="1669,1099 1657,963 1459,1082" style="fill:#aa6cff;stroke:#aa6cff;"></polygon><polygon stroke-linejoin="round" stroke-miterlimit="1" stroke-width="1" points="1677,83 1429,-38 1578,242" style="fill:#c67bff;stroke:#c67bff;"></polygon><polygon stroke-linejoin="round" stroke-miterlimit="1" stroke-width="1" points="1677,83 1562,-67 1429,-38" style="fill:#c67cff;stroke:#c67cff;"></polygon><polygon stroke-linejoin="round" stroke-miterlimit="1" stroke-width="1" points="1657,963 1485,830 1459,1082" style="fill:#b673ff;stroke:#b673ff;"></polygon><polygon stroke-linejoin="round" stroke-miterlimit="1" stroke-width="1" points="1578,242 1429,-38 1349,46" style="fill:#c178ff;stroke:#c178ff;"></polygon><polygon stroke-linejoin="round" stroke-miterlimit="1" stroke-width="1" points="1623,670 1620,580 1562,620" style="fill:#cf99ff;stroke:#cf99ff;"></polygon><polygon stroke-linejoin="round" stroke-miterlimit="1" stroke-width="1" points="1644,527 1511,481 1620,580" style="fill:#d59eff;stroke:#d59eff;"></polygon><polygon stroke-linejoin="round" stroke-miterlimit="1" stroke-width="1" points="1578,242 1349,46 1377,231" style="fill:#c079ff;stroke:#c079ff;"></polygon><polygon stroke-linejoin="round" stroke-miterlimit="1" stroke-width="1" points="1620,580 1511,481 1562,620" style="fill:#d39fff;stroke:#d39fff;"></polygon><polygon stroke-linejoin="round" stroke-miterlimit="1" stroke-width="1" points="1623,670 1562,620 1504,745" style="fill:#dd91ff;stroke:#dd91ff;"></polygon><polygon stroke-linejoin="round" stroke-miterlimit="1" stroke-width="1" points="1485,830 1381,1051 1459,1082" style="fill:#b672ff;stroke:#b672ff;"></polygon><polygon stroke-linejoin="round" stroke-miterlimit="1" stroke-width="1" points="1574,362 1377,231 1356,298" style="fill:#c27dff;stroke:#c27dff;"></polygon><polygon stroke-linejoin="round" stroke-miterlimit="1" stroke-width="1" points="1578,242 1377,231 1574,362" style="fill:#c380ff;stroke:#c380ff;"></polygon><polygon stroke-linejoin="round" stroke-miterlimit="1" stroke-width="1" points="1574,362 1424,472 1511,481" style="fill:#c78aff;stroke:#c78aff;"></polygon><polygon stroke-linejoin="round" stroke-miterlimit="1" stroke-width="1" points="1574,362 1356,298 1424,472" style="fill:#c381ff;stroke:#c381ff;"></polygon><polygon stroke-linejoin="round" stroke-miterlimit="1" stroke-width="1" points="1562,620 1511,481 1424,472" style="fill:#d090ff;stroke:#d090ff;"></polygon><polygon stroke-linejoin="round" stroke-miterlimit="1" stroke-width="1" points="1562,620 1424,472 1504,745" style="fill:#c989ff;stroke:#c989ff;"></polygon><polygon stroke-linejoin="round" stroke-miterlimit="1" stroke-width="1" points="1424,472 1229,427 1181,442" style="fill:#aa6dff;stroke:#aa6dff;"></polygon><polygon stroke-linejoin="round" stroke-miterlimit="1" stroke-width="1" points="1485,830 1240,958 1381,1051" style="fill:#b372ff;stroke:#b372ff;"></polygon><polygon stroke-linejoin="round" stroke-miterlimit="1" stroke-width="1" points="1504,745 1424,472 1181,442" style="fill:#c47eff;stroke:#c47eff;"></polygon><polygon stroke-linejoin="round" stroke-miterlimit="1" stroke-width="1" points="1504,745 1181,442 1114,869" style="fill:#bd75ff;stroke:#bd75ff;"></polygon><polygon stroke-linejoin="round" stroke-miterlimit="1" stroke-width="1" points="1504,745 1114,869 1485,830" style="fill:#b173ff;stroke:#b173ff;"></polygon><polygon stroke-linejoin="round" stroke-miterlimit="1" stroke-width="1" points="1485,830 1114,869 1240,958" style="fill:#bd76ff;stroke:#bd76ff;"></polygon><polygon stroke-linejoin="round" stroke-miterlimit="1" stroke-width="1" points="1181,442 1008,704 1114,869" style="fill:#bc6dff;stroke:#bc6dff;"></polygon><polygon stroke-linejoin="round" stroke-miterlimit="1" stroke-width="1" points="1459,1082 1381,1051 1436,1099" style="fill:#b871ff;stroke:#b871ff;"></polygon><polygon stroke-linejoin="round" stroke-miterlimit="1" stroke-width="1" points="1356,298 1227,387 1229,427" style="fill:#d46cff;stroke:#d46cff;"></polygon><polygon stroke-linejoin="round" stroke-miterlimit="1" stroke-width="1" points="1424,472 1356,298 1229,427" style="fill:#c07bff;stroke:#c07bff;"></polygon><polygon stroke-linejoin="round" stroke-miterlimit="1" stroke-width="1" points="1436,1099 1381,1051 1371,1099" style="fill:#c675ff;stroke:#c675ff;"></polygon><polygon stroke-linejoin="round" stroke-miterlimit="1" stroke-width="1" points="1429,-38 1305,-12 1349,46" style="fill:#be78ff;stroke:#be78ff;"></polygon><polygon stroke-linejoin="round" stroke-miterlimit="1" stroke-width="1" points="1305,-12 1001,-101 1053,-40" style="fill:#bf6fff;stroke:#bf6fff;"></polygon><polygon stroke-linejoin="round" stroke-miterlimit="1" stroke-width="1" points="1377,231 1349,46 1265,226" style="fill:#bc77ff;stroke:#bc77ff;"></polygon><polygon stroke-linejoin="round" stroke-miterlimit="1" stroke-width="1" points="1381,1051 1239,1011 1371,1099" style="fill:#bc78ff;stroke:#bc78ff;"></polygon><polygon stroke-linejoin="round" stroke-miterlimit="1" stroke-width="1" points="1381,1051 1240,958 1239,1011" style="fill:#c376ff;stroke:#c376ff;"></polygon><polygon stroke-linejoin="round" stroke-miterlimit="1" stroke-width="1" points="1377,231 1265,226 1356,298" style="fill:#c474ff;stroke:#c474ff;"></polygon><polygon stroke-linejoin="round" stroke-miterlimit="1" stroke-width="1" points="1371,1099 1239,1011 1151,1099" style="fill:#b06eff;stroke:#b06eff;"></polygon><polygon stroke-linejoin="round" stroke-miterlimit="1" stroke-width="1" points="1305,-12 1226,234 1265,226" style="fill:#c16eff;stroke:#c16eff;"></polygon><polygon stroke-linejoin="round" stroke-miterlimit="1" stroke-width="1" points="1349,46 1305,-12 1265,226" style="fill:#c072ff;stroke:#c072ff;"></polygon><polygon stroke-linejoin="round" stroke-miterlimit="1" stroke-width="1" points="1356,298 1265,226 1222,309" style="fill:#bf75ff;stroke:#bf75ff;"></polygon><polygon stroke-linejoin="round" stroke-miterlimit="1" stroke-width="1" points="1356,298 1222,309 1227,387" style="fill:#bf75ff;stroke:#bf75ff;"></polygon><polygon stroke-linejoin="round" stroke-miterlimit="1" stroke-width="1" points="900,1099 493,1089 464,1099" style="fill:#945cff;stroke:#945cff;"></polygon><polygon stroke-linejoin="round" stroke-miterlimit="1" stroke-width="1" points="1305,-12 1038,30 1226,234" style="fill:#c06fff;stroke:#c06fff;"></polygon><polygon stroke-linejoin="round" stroke-miterlimit="1" stroke-width="1" points="1305,-12 1053,-40 1038,30" style="fill:#c170ff;stroke:#c170ff;"></polygon><polygon stroke-linejoin="round" stroke-miterlimit="1" stroke-width="1" points="1265,226 1226,234 1222,309" style="fill:#c46cff;stroke:#c46cff;"></polygon><polygon stroke-linejoin="round" stroke-miterlimit="1" stroke-width="1" points="1239,1011 1114,869 1151,1099" style="fill:#b36eff;stroke:#b36eff;"></polygon><polygon stroke-linejoin="round" stroke-miterlimit="1" stroke-width="1" points="1240,958 1114,869 1239,1011" style="fill:#ba76ff;stroke:#ba76ff;"></polygon><polygon stroke-linejoin="round" stroke-miterlimit="1" stroke-width="1" points="1227,387 1222,309 1181,442" style="fill:#b67bff;stroke:#b67bff;"></polygon><polygon stroke-linejoin="round" stroke-miterlimit="1" stroke-width="1" points="1229,427 1227,387 1181,442" style="fill:#ca6fff;stroke:#ca6fff;"></polygon><polygon stroke-linejoin="round" stroke-miterlimit="1" stroke-width="1" points="1226,234 903,421 1222,309" style="fill:#c271ff;stroke:#c271ff;"></polygon><polygon stroke-linejoin="round" stroke-miterlimit="1" stroke-width="1" points="1226,234 1038,30 811,240" style="fill:#c170ff;stroke:#c170ff;"></polygon><polygon stroke-linejoin="round" stroke-miterlimit="1" stroke-width="1" points="1226,234 811,240 903,421" style="fill:#be6fff;stroke:#be6fff;"></polygon><polygon stroke-linejoin="round" stroke-miterlimit="1" stroke-width="1" points="1222,309 903,421 1181,442" style="fill:#bc71ff;stroke:#bc71ff;"></polygon><polygon stroke-linejoin="round" stroke-miterlimit="1" stroke-width="1" points="1151,1099 1114,869 1032,1096" style="fill:#b26cff;stroke:#b26cff;"></polygon><polygon stroke-linejoin="round" stroke-miterlimit="1" stroke-width="1" points="1181,442 903,421 1008,704" style="fill:#be70ff;stroke:#be70ff;"></polygon><polygon stroke-linejoin="round" stroke-miterlimit="1" stroke-width="1" points="1114,869 962,905 1032,1096" style="fill:#b16aff;stroke:#b16aff;"></polygon><polygon stroke-linejoin="round" stroke-miterlimit="1" stroke-width="1" points="1008,704 903,421 829,583" style="fill:#bd6cff;stroke:#bd6cff;"></polygon><polygon stroke-linejoin="round" stroke-miterlimit="1" stroke-width="1" points="1114,869 1008,704 948,770" style="fill:#bb70ff;stroke:#bb70ff;"></polygon><polygon stroke-linejoin="round" stroke-miterlimit="1" stroke-width="1" points="1114,869 948,770 962,905" style="fill:#ba70ff;stroke:#ba70ff;"></polygon><polygon stroke-linejoin="round" stroke-miterlimit="1" stroke-width="1" points="900,1099 679,1034 493,1089" style="fill:#b169ff;stroke:#b169ff;"></polygon><polygon stroke-linejoin="round" stroke-miterlimit="1" stroke-width="1" points="903,421 811,240 813,353" style="fill:#c56eff;stroke:#c56eff;"></polygon><polygon stroke-linejoin="round" stroke-miterlimit="1" stroke-width="1" points="1001,1099 962,905 902,1097" style="fill:#b86cff;stroke:#b86cff;"></polygon><polygon stroke-linejoin="round" stroke-miterlimit="1" stroke-width="1" points="1008,704 829,583 912,709" style="fill:#b56bff;stroke:#b56bff;"></polygon><polygon stroke-linejoin="round" stroke-miterlimit="1" stroke-width="1" points="1032,1096 962,905 1001,1099" style="fill:#b062ff;stroke:#b062ff;"></polygon><polygon stroke-linejoin="round" stroke-miterlimit="1" stroke-width="1" points="1038,30 787,108 811,240" style="fill:#c96aff;stroke:#c96aff;"></polygon><polygon stroke-linejoin="round" stroke-miterlimit="1" stroke-width="1" points="1053,-40 963,-84 1038,30" style="fill:#c76dff;stroke:#c76dff;"></polygon><polygon stroke-linejoin="round" stroke-miterlimit="1" stroke-width="1" points="1053,-40 1001,-101 963,-84" style="fill:#c06aff;stroke:#c06aff;"></polygon><polygon stroke-linejoin="round" stroke-miterlimit="1" stroke-width="1" points="1001,-101 887,-101 963,-84" style="fill:#c669ff;stroke:#c669ff;"></polygon><polygon stroke-linejoin="round" stroke-miterlimit="1" stroke-width="1" points="1038,30 963,-84 787,108" style="fill:#c46bff;stroke:#c46bff;"></polygon><polygon stroke-linejoin="round" stroke-miterlimit="1" stroke-width="1" points="903,421 862,438 829,583" style="fill:#b981ff;stroke:#b981ff;"></polygon><polygon stroke-linejoin="round" stroke-miterlimit="1" stroke-width="1" points="962,905 863,903 902,1097" style="fill:#af67ff;stroke:#af67ff;"></polygon><polygon stroke-linejoin="round" stroke-miterlimit="1" stroke-width="1" points="963,-84 887,-101 787,108" style="fill:#c66dff;stroke:#c66dff;"></polygon><polygon stroke-linejoin="round" stroke-miterlimit="1" stroke-width="1" points="1001,1099 902,1097 900,1099" style="fill:#ffafff;stroke:#ffafff;"></polygon><polygon stroke-linejoin="round" stroke-miterlimit="1" stroke-width="1" points="1008,704 912,709 948,770" style="fill:#a468ff;stroke:#a468ff;"></polygon><polygon stroke-linejoin="round" stroke-miterlimit="1" stroke-width="1" points="962,905 948,770 863,903" style="fill:#ae67ff;stroke:#ae67ff;"></polygon><polygon stroke-linejoin="round" stroke-miterlimit="1" stroke-width="1" points="948,770 912,709 806,884" style="fill:#b468ff;stroke:#b468ff;"></polygon><polygon stroke-linejoin="round" stroke-miterlimit="1" stroke-width="1" points="948,770 806,884 863,903" style="fill:#c46bff;stroke:#c46bff;"></polygon><polygon stroke-linejoin="round" stroke-miterlimit="1" stroke-width="1" points="900,1099 736,943 679,1034" style="fill:#aa66ff;stroke:#aa66ff;"></polygon><polygon stroke-linejoin="round" stroke-miterlimit="1" stroke-width="1" points="902,1097 736,943 900,1099" style="fill:#9459ff;stroke:#9459ff;"></polygon><polygon stroke-linejoin="round" stroke-miterlimit="1" stroke-width="1" points="902,1097 863,903 736,943" style="fill:#af67ff;stroke:#af67ff;"></polygon><polygon stroke-linejoin="round" stroke-miterlimit="1" stroke-width="1" points="903,421 813,353 862,438" style="fill:#c278ff;stroke:#c278ff;"></polygon><polygon stroke-linejoin="round" stroke-miterlimit="1" stroke-width="1" points="912,709 829,583 806,884" style="fill:#bc6aff;stroke:#bc6aff;"></polygon><polygon stroke-linejoin="round" stroke-miterlimit="1" stroke-width="1" points="811,240 787,108 780,221" style="fill:#cb65ff;stroke:#cb65ff;"></polygon><polygon stroke-linejoin="round" stroke-miterlimit="1" stroke-width="1" points="887,-101 653,-101 787,108" style="fill:#d06dff;stroke:#d06dff;"></polygon><polygon stroke-linejoin="round" stroke-miterlimit="1" stroke-width="1" points="829,583 653,533 806,884" style="fill:#be71ff;stroke:#be71ff;"></polygon><polygon stroke-linejoin="round" stroke-miterlimit="1" stroke-width="1" points="863,903 806,884 736,943" style="fill:#be6dff;stroke:#be6dff;"></polygon><polygon stroke-linejoin="round" stroke-miterlimit="1" stroke-width="1" points="806,884 653,533 477,746" style="fill:#bd6cff;stroke:#bd6cff;"></polygon><polygon stroke-linejoin="round" stroke-miterlimit="1" stroke-width="1" points="813,353 811,240 762,292" style="fill:#c474ff;stroke:#c474ff;"></polygon><polygon stroke-linejoin="round" stroke-miterlimit="1" stroke-width="1" points="862,438 653,533 829,583" style="fill:#c36bff;stroke:#c36bff;"></polygon><polygon stroke-linejoin="round" stroke-miterlimit="1" stroke-width="1" points="862,438 737,349 653,533" style="fill:#c66aff;stroke:#c66aff;"></polygon><polygon stroke-linejoin="round" stroke-miterlimit="1" stroke-width="1" points="862,438 813,353 737,349" style="fill:#c270ff;stroke:#c270ff;"></polygon><polygon stroke-linejoin="round" stroke-miterlimit="1" stroke-width="1" points="569,-101 248,-79 323,-64" style="fill:#ff7aff;stroke:#ff7aff;"></polygon><polygon stroke-linejoin="round" stroke-miterlimit="1" stroke-width="1" points="787,108 720,136 780,221" style="fill:#cc73ff;stroke:#cc73ff;"></polygon><polygon stroke-linejoin="round" stroke-miterlimit="1" stroke-width="1" points="787,108 653,-101 720,136" style="fill:#d868ff;stroke:#d868ff;"></polygon><polygon stroke-linejoin="round" stroke-miterlimit="1" stroke-width="1" points="806,884 477,746 736,943" style="fill:#b167ff;stroke:#b167ff;"></polygon><polygon stroke-linejoin="round" stroke-miterlimit="1" stroke-width="1" points="811,240 780,221 762,292" style="fill:#c377ff;stroke:#c377ff;"></polygon><polygon stroke-linejoin="round" stroke-miterlimit="1" stroke-width="1" points="813,353 762,292 737,349" style="fill:#bc65ff;stroke:#bc65ff;"></polygon><polygon stroke-linejoin="round" stroke-miterlimit="1" stroke-width="1" points="720,136 653,-101 524,14" style="fill:#e66cff;stroke:#e66cff;"></polygon><polygon stroke-linejoin="round" stroke-miterlimit="1" stroke-width="1" points="780,221 667,211 762,292" style="fill:#c96bff;stroke:#c96bff;"></polygon><polygon stroke-linejoin="round" stroke-miterlimit="1" stroke-width="1" points="780,221 720,136 667,211" style="fill:#d16aff;stroke:#d16aff;"></polygon><polygon stroke-linejoin="round" stroke-miterlimit="1" stroke-width="1" points="653,533 475,620 477,746" style="fill:#b969ff;stroke:#b969ff;"></polygon><polygon stroke-linejoin="round" stroke-miterlimit="1" stroke-width="1" points="737,349 591,325 653,533" style="fill:#c269ff;stroke:#c269ff;"></polygon><polygon stroke-linejoin="round" stroke-miterlimit="1" stroke-width="1" points="762,292 667,211 737,349" style="fill:#c86eff;stroke:#c86eff;"></polygon><polygon stroke-linejoin="round" stroke-miterlimit="1" stroke-width="1" points="736,943 447,988 679,1034" style="fill:#c26fff;stroke:#c26fff;"></polygon><polygon stroke-linejoin="round" stroke-miterlimit="1" stroke-width="1" points="736,943 477,746 447,988" style="fill:#b367ff;stroke:#b367ff;"></polygon><polygon stroke-linejoin="round" stroke-miterlimit="1" stroke-width="1" points="737,349 667,211 591,325" style="fill:#d06cff;stroke:#d06cff;"></polygon><polygon stroke-linejoin="round" stroke-miterlimit="1" stroke-width="1" points="720,136 524,14 667,211" style="fill:#da69ff;stroke:#da69ff;"></polygon><polygon stroke-linejoin="round" stroke-miterlimit="1" stroke-width="1" points="653,-101 569,-101 524,14" style="fill:#ff72ff;stroke:#ff72ff;"></polygon><polygon stroke-linejoin="round" stroke-miterlimit="1" stroke-width="1" points="653,533 591,325 477,445" style="fill:#c76cff;stroke:#c76cff;"></polygon><polygon stroke-linejoin="round" stroke-miterlimit="1" stroke-width="1" points="679,1034 447,988 493,1089" style="fill:#bb6cff;stroke:#bb6cff;"></polygon><polygon stroke-linejoin="round" stroke-miterlimit="1" stroke-width="1" points="667,211 524,14 591,325" style="fill:#dd70ff;stroke:#dd70ff;"></polygon><polygon stroke-linejoin="round" stroke-miterlimit="1" stroke-width="1" points="477,746 417,790 447,988" style="fill:#ba6cff;stroke:#ba6cff;"></polygon><polygon stroke-linejoin="round" stroke-miterlimit="1" stroke-width="1" points="591,325 524,14 338,113" style="fill:#e66eff;stroke:#e66eff;"></polygon><polygon stroke-linejoin="round" stroke-miterlimit="1" stroke-width="1" points="653,533 477,445 475,620" style="fill:#ba69ff;stroke:#ba69ff;"></polygon><polygon stroke-linejoin="round" stroke-miterlimit="1" stroke-width="1" points="291,1099 140,1054 -199,1099" style="fill:#b367ff;stroke:#b367ff;"></polygon><polygon stroke-linejoin="round" stroke-miterlimit="1" stroke-width="1" points="377,349 338,113 345,325" style="fill:#e476ff;stroke:#e476ff;"></polygon><polygon stroke-linejoin="round" stroke-miterlimit="1" stroke-width="1" points="591,325 377,349 477,445" style="fill:#ca6dff;stroke:#ca6dff;"></polygon><polygon stroke-linejoin="round" stroke-miterlimit="1" stroke-width="1" points="591,325 338,113 377,349" style="fill:#d96eff;stroke:#d96eff;"></polygon><polygon stroke-linejoin="round" stroke-miterlimit="1" stroke-width="1" points="447,988 417,790 391,956" style="fill:#bf6dff;stroke:#bf6dff;"></polygon><polygon stroke-linejoin="round" stroke-miterlimit="1" stroke-width="1" points="569,-101 323,-64 524,14" style="fill:#ff72ff;stroke:#ff72ff;"></polygon><polygon stroke-linejoin="round" stroke-miterlimit="1" stroke-width="1" points="345,325 338,113 289,204" style="fill:#e571ff;stroke:#e571ff;"></polygon><polygon stroke-linejoin="round" stroke-miterlimit="1" stroke-width="1" points="477,746 475,620 406,666" style="fill:#be6dff;stroke:#be6dff;"></polygon><polygon stroke-linejoin="round" stroke-miterlimit="1" stroke-width="1" points="477,445 384,441 475,620" style="fill:#cd6eff;stroke:#cd6eff;"></polygon><polygon stroke-linejoin="round" stroke-miterlimit="1" stroke-width="1" points="493,1089 447,988 421,1039" style="fill:#a963ff;stroke:#a963ff;"></polygon><polygon stroke-linejoin="round" stroke-miterlimit="1" stroke-width="1" points="524,14 323,-64 338,113" style="fill:#ff70ff;stroke:#ff70ff;"></polygon><polygon stroke-linejoin="round" stroke-miterlimit="1" stroke-width="1" points="475,620 283,520 406,666" style="fill:#c46cff;stroke:#c46cff;"></polygon><polygon stroke-linejoin="round" stroke-miterlimit="1" stroke-width="1" points="475,620 384,441 283,520" style="fill:#d071ff;stroke:#d071ff;"></polygon><polygon stroke-linejoin="round" stroke-miterlimit="1" stroke-width="1" points="477,445 377,349 384,441" style="fill:#cf71ff;stroke:#cf71ff;"></polygon><polygon stroke-linejoin="round" stroke-miterlimit="1" stroke-width="1" points="493,1089 422,1062 464,1099" style="fill:#cc6fff;stroke:#cc6fff;"></polygon><polygon stroke-linejoin="round" stroke-miterlimit="1" stroke-width="1" points="493,1089 421,1039 422,1062" style="fill:#ab67ff;stroke:#ab67ff;"></polygon><polygon stroke-linejoin="round" stroke-miterlimit="1" stroke-width="1" points="464,1099 394,1058 291,1099" style="fill:#ba6cff;stroke:#ba6cff;"></polygon><polygon stroke-linejoin="round" stroke-miterlimit="1" stroke-width="1" points="477,746 406,666 417,790" style="fill:#be68ff;stroke:#be68ff;"></polygon><polygon stroke-linejoin="round" stroke-miterlimit="1" stroke-width="1" points="464,1099 422,1062 394,1058" style="fill:#bf6aff;stroke:#bf6aff;"></polygon><polygon stroke-linejoin="round" stroke-miterlimit="1" stroke-width="1" points="447,988 412,1031 421,1039" style="fill:#ea6dff;stroke:#ea6dff;"></polygon><polygon stroke-linejoin="round" stroke-miterlimit="1" stroke-width="1" points="447,988 391,956 412,1031" style="fill:#a15dff;stroke:#a15dff;"></polygon><polygon stroke-linejoin="round" stroke-miterlimit="1" stroke-width="1" points="291,1099 192,1060 140,1054" style="fill:#8f57ff;stroke:#8f57ff;"></polygon><polygon stroke-linejoin="round" stroke-miterlimit="1" stroke-width="1" points="406,666 283,520 254,558" style="fill:#b765ff;stroke:#b765ff;"></polygon><polygon stroke-linejoin="round" stroke-miterlimit="1" stroke-width="1" points="417,790 194,925 391,956" style="fill:#bb6cff;stroke:#bb6cff;"></polygon><polygon stroke-linejoin="round" stroke-miterlimit="1" stroke-width="1" points="417,790 298,717 194,925" style="fill:#ba6bff;stroke:#ba6bff;"></polygon><polygon stroke-linejoin="round" stroke-miterlimit="1" stroke-width="1" points="417,790 406,666 298,717" style="fill:#cb73ff;stroke:#cb73ff;"></polygon><polygon stroke-linejoin="round" stroke-miterlimit="1" stroke-width="1" points="421,1039 412,1031 394,1058" style="fill:#a971ff;stroke:#a971ff;"></polygon><polygon stroke-linejoin="round" stroke-miterlimit="1" stroke-width="1" points="422,1062 421,1039 394,1058" style="fill:#b566ff;stroke:#b566ff;"></polygon><polygon stroke-linejoin="round" stroke-miterlimit="1" stroke-width="1" points="248,-79 -199,-101 -7,-18" style="fill:#d06cff;stroke:#d06cff;"></polygon><polygon stroke-linejoin="round" stroke-miterlimit="1" stroke-width="1" points="406,666 254,558 298,717" style="fill:#c46eff;stroke:#c46eff;"></polygon><polygon stroke-linejoin="round" stroke-miterlimit="1" stroke-width="1" points="412,1031 391,956 394,1058" style="fill:#bc69ff;stroke:#bc69ff;"></polygon><polygon stroke-linejoin="round" stroke-miterlimit="1" stroke-width="1" points="394,1058 391,956 291,1099" style="fill:#b769ff;stroke:#b769ff;"></polygon><polygon stroke-linejoin="round" stroke-miterlimit="1" stroke-width="1" points="338,113 323,-64 234,72" style="fill:#ff78ff;stroke:#ff78ff;"></polygon><polygon stroke-linejoin="round" stroke-miterlimit="1" stroke-width="1" points="345,325 289,204 266,285" style="fill:#ed79ff;stroke:#ed79ff;"></polygon><polygon stroke-linejoin="round" stroke-miterlimit="1" stroke-width="1" points="384,441 377,349 345,325" style="fill:#dc76ff;stroke:#dc76ff;"></polygon><polygon stroke-linejoin="round" stroke-miterlimit="1" stroke-width="1" points="384,441 281,516 283,520" style="fill:#d69eff;stroke:#d69eff;"></polygon><polygon stroke-linejoin="round" stroke-miterlimit="1" stroke-width="1" points="391,956 208,1021 291,1099" style="fill:#ba66ff;stroke:#ba66ff;"></polygon><polygon stroke-linejoin="round" stroke-miterlimit="1" stroke-width="1" points="391,956 194,925 208,1021" style="fill:#b065ff;stroke:#b065ff;"></polygon><polygon stroke-linejoin="round" stroke-miterlimit="1" stroke-width="1" points="384,441 345,325 281,516" style="fill:#d473ff;stroke:#d473ff;"></polygon><polygon stroke-linejoin="round" stroke-miterlimit="1" stroke-width="1" points="281,516 266,285 104,402" style="fill:#e779ff;stroke:#e779ff;"></polygon><polygon stroke-linejoin="round" stroke-miterlimit="1" stroke-width="1" points="323,-64 248,-79 234,72" style="fill:#f770ff;stroke:#f770ff;"></polygon><polygon stroke-linejoin="round" stroke-miterlimit="1" stroke-width="1" points="345,325 266,285 281,516" style="fill:#e57dff;stroke:#e57dff;"></polygon><polygon stroke-linejoin="round" stroke-miterlimit="1" stroke-width="1" points="298,717 254,558 185,603" style="fill:#cf73ff;stroke:#cf73ff;"></polygon><polygon stroke-linejoin="round" stroke-miterlimit="1" stroke-width="1" points="338,113 234,72 289,204" style="fill:#ed70ff;stroke:#ed70ff;"></polygon><polygon stroke-linejoin="round" stroke-miterlimit="1" stroke-width="1" points="140,1054 81,1034 -199,1099" style="fill:#925aff;stroke:#925aff;"></polygon><polygon stroke-linejoin="round" stroke-miterlimit="1" stroke-width="1" points="194,925 49,677 55,891" style="fill:#b466ff;stroke:#b466ff;"></polygon><polygon stroke-linejoin="round" stroke-miterlimit="1" stroke-width="1" points="289,204 234,72 165,204" style="fill:#e771ff;stroke:#e771ff;"></polygon><polygon stroke-linejoin="round" stroke-miterlimit="1" stroke-width="1" points="291,1099 208,1021 192,1060" style="fill:#9e5cff;stroke:#9e5cff;"></polygon><polygon stroke-linejoin="round" stroke-miterlimit="1" stroke-width="1" points="298,717 49,677 194,925" style="fill:#bb6bff;stroke:#bb6bff;"></polygon><polygon stroke-linejoin="round" stroke-miterlimit="1" stroke-width="1" points="298,717 185,603 49,677" style="fill:#b165ff;stroke:#b165ff;"></polygon><polygon stroke-linejoin="round" stroke-miterlimit="1" stroke-width="1" points="281,516 104,402 158,562" style="fill:#d473ff;stroke:#d473ff;"></polygon><polygon stroke-linejoin="round" stroke-miterlimit="1" stroke-width="1" points="289,204 165,204 266,285" style="fill:#f278ff;stroke:#f278ff;"></polygon><polygon stroke-linejoin="round" stroke-miterlimit="1" stroke-width="1" points="281,516 158,562 254,558" style="fill:#cf6dff;stroke:#cf6dff;"></polygon><polygon stroke-linejoin="round" stroke-miterlimit="1" stroke-width="1" points="283,520 281,516 254,558" style="fill:#cd89ff;stroke:#cd89ff;"></polygon><polygon stroke-linejoin="round" stroke-miterlimit="1" stroke-width="1" points="248,-79 41,21 234,72" style="fill:#e671ff;stroke:#e671ff;"></polygon><polygon stroke-linejoin="round" stroke-miterlimit="1" stroke-width="1" points="266,285 165,204 98,254" style="fill:#ff83ff;stroke:#ff83ff;"></polygon><polygon stroke-linejoin="round" stroke-miterlimit="1" stroke-width="1" points="266,285 98,254 104,402" style="fill:#ff8eff;stroke:#ff8eff;"></polygon><polygon stroke-linejoin="round" stroke-miterlimit="1" stroke-width="1" points="254,558 158,562 185,603" style="fill:#ee79ff;stroke:#ee79ff;"></polygon><polygon stroke-linejoin="round" stroke-miterlimit="1" stroke-width="1" points="55,891 49,677 1,739" style="fill:#c46eff;stroke:#c46eff;"></polygon><polygon stroke-linejoin="round" stroke-miterlimit="1" stroke-width="1" points="248,-79 -7,-18 41,21" style="fill:#de71ff;stroke:#de71ff;"></polygon><polygon stroke-linejoin="round" stroke-miterlimit="1" stroke-width="1" points="55,891 1,739 -7,780" style="fill:#995bff;stroke:#995bff;"></polygon><polygon stroke-linejoin="round" stroke-miterlimit="1" stroke-width="1" points="185,603 56,654 49,677" style="fill:#b16aff;stroke:#b16aff;"></polygon><polygon stroke-linejoin="round" stroke-miterlimit="1" stroke-width="1" points="234,72 41,21 165,204" style="fill:#ef78ff;stroke:#ef78ff;"></polygon><polygon stroke-linejoin="round" stroke-miterlimit="1" stroke-width="1" points="194,925 81,1034 140,1054" style="fill:#b268ff;stroke:#b268ff;"></polygon><polygon stroke-linejoin="round" stroke-miterlimit="1" stroke-width="1" points="208,1021 194,925 140,1054" style="fill:#af63ff;stroke:#af63ff;"></polygon><polygon stroke-linejoin="round" stroke-miterlimit="1" stroke-width="1" points="208,1021 140,1054 192,1060" style="fill:#b26aff;stroke:#b26aff;"></polygon><polygon stroke-linejoin="round" stroke-miterlimit="1" stroke-width="1" points="158,562 104,402 33,441" style="fill:#e178ff;stroke:#e178ff;"></polygon><polygon stroke-linejoin="round" stroke-miterlimit="1" stroke-width="1" points="165,204 41,21 -28,158" style="fill:#ef7bff;stroke:#ef7bff;"></polygon><polygon stroke-linejoin="round" stroke-miterlimit="1" stroke-width="1" points="194,925 55,891 81,1034" style="fill:#b667ff;stroke:#b667ff;"></polygon><polygon stroke-linejoin="round" stroke-miterlimit="1" stroke-width="1" points="185,603 158,562 56,654" style="fill:#c46fff;stroke:#c46fff;"></polygon><polygon stroke-linejoin="round" stroke-miterlimit="1" stroke-width="1" points="165,204 -28,158 98,254" style="fill:#ff83ff;stroke:#ff83ff;"></polygon><polygon stroke-linejoin="round" stroke-miterlimit="1" stroke-width="1" points="158,562 -29,571 56,654" style="fill:#c06cff;stroke:#c06cff;"></polygon><polygon stroke-linejoin="round" stroke-miterlimit="1" stroke-width="1" points="158,562 33,441 -29,571" style="fill:#dc77ff;stroke:#dc77ff;"></polygon><polygon stroke-linejoin="round" stroke-miterlimit="1" stroke-width="1" points="33,441 -36,550 -29,571" style="fill:#cb73ff;stroke:#cb73ff;"></polygon><polygon stroke-linejoin="round" stroke-miterlimit="1" stroke-width="1" points="104,402 98,254 -71,368" style="fill:#ff87ff;stroke:#ff87ff;"></polygon><polygon stroke-linejoin="round" stroke-miterlimit="1" stroke-width="1" points="104,402 -71,368 33,441" style="fill:#de78ff;stroke:#de78ff;"></polygon><polygon stroke-linejoin="round" stroke-miterlimit="1" stroke-width="1" points="81,1034 55,891 -17,882" style="fill:#a961ff;stroke:#a961ff;"></polygon><polygon stroke-linejoin="round" stroke-miterlimit="1" stroke-width="1" points="98,254 -28,158 -76,208" style="fill:#ea78ff;stroke:#ea78ff;"></polygon><polygon stroke-linejoin="round" stroke-miterlimit="1" stroke-width="1" points="98,254 -76,208 -71,368" style="fill:#f27dff;stroke:#f27dff;"></polygon><polygon stroke-linejoin="round" stroke-miterlimit="1" stroke-width="1" points="55,891 -7,780 -17,882" style="fill:#b467ff;stroke:#b467ff;"></polygon><polygon stroke-linejoin="round" stroke-miterlimit="1" stroke-width="1" points="81,1034 -17,882 -199,1055" style="fill:#ab65ff;stroke:#ab65ff;"></polygon><polygon stroke-linejoin="round" stroke-miterlimit="1" stroke-width="1" points="81,1034 -199,1055 -199,1099" style="fill:#b365ff;stroke:#b365ff;"></polygon><polygon stroke-linejoin="round" stroke-miterlimit="1" stroke-width="1" points="-17,882 -194,949 -199,1055" style="fill:#ad66ff;stroke:#ad66ff;"></polygon><polygon stroke-linejoin="round" stroke-miterlimit="1" stroke-width="1" points="41,21 -109,39 -28,158" style="fill:#ce6cff;stroke:#ce6cff;"></polygon><polygon stroke-linejoin="round" stroke-miterlimit="1" stroke-width="1" points="56,654 -29,571 49,677" style="fill:#9c5cff;stroke:#9c5cff;"></polygon><polygon stroke-linejoin="round" stroke-miterlimit="1" stroke-width="1" points="41,21 -7,-18 -109,39" style="fill:#d16dff;stroke:#d16dff;"></polygon><polygon stroke-linejoin="round" stroke-miterlimit="1" stroke-width="1" points="49,677 -79,718 1,739" style="fill:#aa63ff;stroke:#aa63ff;"></polygon><polygon stroke-linejoin="round" stroke-miterlimit="1" stroke-width="1" points="49,677 -29,571 -79,718" style="fill:#b668ff;stroke:#b668ff;"></polygon><polygon stroke-linejoin="round" stroke-miterlimit="1" stroke-width="1" points="-29,571 -108,619 -79,718" style="fill:#d074ff;stroke:#d074ff;"></polygon><polygon stroke-linejoin="round" stroke-miterlimit="1" stroke-width="1" points="33,441 -71,368 -109,445" style="fill:#e77bff;stroke:#e77bff;"></polygon><polygon stroke-linejoin="round" stroke-miterlimit="1" stroke-width="1" points="33,441 -109,501 -36,550" style="fill:#c56dff;stroke:#c56dff;"></polygon><polygon stroke-linejoin="round" stroke-miterlimit="1" stroke-width="1" points="33,441 -109,445 -109,501" style="fill:#cc76ff;stroke:#cc76ff;"></polygon><polygon stroke-linejoin="round" stroke-miterlimit="1" stroke-width="1" points="-7,780 -183,790 -17,882" style="fill:#b066ff;stroke:#b066ff;"></polygon><polygon stroke-linejoin="round" stroke-miterlimit="1" stroke-width="1" points="-7,-18 -199,-75 -109,39" style="fill:#c56aff;stroke:#c56aff;"></polygon><polygon stroke-linejoin="round" stroke-miterlimit="1" stroke-width="1" points="-7,-18 -199,-101 -199,-75" style="fill:#c369ff;stroke:#c369ff;"></polygon><polygon stroke-linejoin="round" stroke-miterlimit="1" stroke-width="1" points="1,739 -79,718 -7,780" style="fill:#9a5cff;stroke:#9a5cff;"></polygon><polygon stroke-linejoin="round" stroke-miterlimit="1" stroke-width="1" points="-7,780 -79,718 -183,790" style="fill:#c46eff;stroke:#c46eff;"></polygon><polygon stroke-linejoin="round" stroke-miterlimit="1" stroke-width="1" points="-28,158 -169,143 -81,195" style="fill:#cc6cff;stroke:#cc6cff;"></polygon><polygon stroke-linejoin="round" stroke-miterlimit="1" stroke-width="1" points="-28,158 -109,39 -169,143" style="fill:#d571ff;stroke:#d571ff;"></polygon><polygon stroke-linejoin="round" stroke-miterlimit="1" stroke-width="1" points="-28,158 -81,195 -76,208" style="fill:#db71ff;stroke:#db71ff;"></polygon><polygon stroke-linejoin="round" stroke-miterlimit="1" stroke-width="1" points="-17,882 -183,790 -194,949" style="fill:#b567ff;stroke:#b567ff;"></polygon><polygon stroke-linejoin="round" stroke-miterlimit="1" stroke-width="1" points="-29,571 -36,550 -108,619" style="fill:#c667ff;stroke:#c667ff;"></polygon><polygon stroke-linejoin="round" stroke-miterlimit="1" stroke-width="1" points="-71,368 -76,208 -181,380" style="fill:#ce6fff;stroke:#ce6fff;"></polygon><polygon stroke-linejoin="round" stroke-miterlimit="1" stroke-width="1" points="-36,550 -109,501 -108,619" style="fill:#d474ff;stroke:#d474ff;"></polygon><polygon stroke-linejoin="round" stroke-miterlimit="1" stroke-width="1" points="-108,619 -109,501 -199,568" style="fill:#af62ff;stroke:#af62ff;"></polygon><polygon stroke-linejoin="round" stroke-miterlimit="1" stroke-width="1" points="-79,718 -108,619 -199,700" style="fill:#b165ff;stroke:#b165ff;"></polygon><polygon stroke-linejoin="round" stroke-miterlimit="1" stroke-width="1" points="-76,208 -169,143 -181,380" style="fill:#cb6eff;stroke:#cb6eff;"></polygon><polygon stroke-linejoin="round" stroke-miterlimit="1" stroke-width="1" points="-71,368 -181,380 -109,445" style="fill:#c26aff;stroke:#c26aff;"></polygon><polygon stroke-linejoin="round" stroke-miterlimit="1" stroke-width="1" points="-109,501 -199,547 -199,568" style="fill:#b56dff;stroke:#b56dff;"></polygon><polygon stroke-linejoin="round" stroke-miterlimit="1" stroke-width="1" points="-79,718 -199,700 -183,790" style="fill:#b262ff;stroke:#b262ff;"></polygon><polygon stroke-linejoin="round" stroke-miterlimit="1" stroke-width="1" points="-76,208 -81,195 -169,143" style="fill:#ab63ff;stroke:#ab63ff;"></polygon><polygon stroke-linejoin="round" stroke-miterlimit="1" stroke-width="1" points="-109,445 -181,380 -176,427" style="fill:#b865ff;stroke:#b865ff;"></polygon><polygon stroke-linejoin="round" stroke-miterlimit="1" stroke-width="1" points="-109,39 -199,107 -169,143" style="fill:#d975ff;stroke:#d975ff;"></polygon><polygon stroke-linejoin="round" stroke-miterlimit="1" stroke-width="1" points="-109,501 -199,524 -199,547" style="fill:#c671ff;stroke:#c671ff;"></polygon><polygon stroke-linejoin="round" stroke-miterlimit="1" stroke-width="1" points="-109,501 -109,445 -176,427" style="fill:#b363ff;stroke:#b363ff;"></polygon><polygon stroke-linejoin="round" stroke-miterlimit="1" stroke-width="1" points="-109,501 -176,427 -199,499" style="fill:#b866ff;stroke:#b866ff;"></polygon><polygon stroke-linejoin="round" stroke-miterlimit="1" stroke-width="1" points="-109,39 -199,-75 -199,107" style="fill:#cb6dff;stroke:#cb6dff;"></polygon><polygon stroke-linejoin="round" stroke-miterlimit="1" stroke-width="1" points="-108,619 -199,568 -199,700" style="fill:#b869ff;stroke:#b869ff;"></polygon><polygon stroke-linejoin="round" stroke-miterlimit="1" stroke-width="1" points="-109,501 -199,499 -199,524" style="fill:#c667ff;stroke:#c667ff;"></polygon><polygon stroke-linejoin="round" stroke-miterlimit="1" stroke-width="1" points="-169,143 -199,107 -181,380" style="fill:#b162ff;stroke:#b162ff;"></polygon><polygon stroke-linejoin="round" stroke-miterlimit="1" stroke-width="1" points="-176,427 -181,380 -199,499" style="fill:#ef83ff;stroke:#ef83ff;"></polygon><polygon stroke-linejoin="round" stroke-miterlimit="1" stroke-width="1" points="-181,380 -199,107 -199,499" style="fill:#cf71ff;stroke:#cf71ff;"></polygon><polygon stroke-linejoin="round" stroke-miterlimit="1" stroke-width="1" points="-183,790 -199,700 -194,949" style="fill:#9459ff;stroke:#9459ff;"></polygon><polygon stroke-linejoin="round" stroke-miterlimit="1" stroke-width="1" points="-194,949 -199,700 -199,1055" style="fill:#f993ff;stroke:#f993ff;"></polygon></svg>