
      <svg xmlns="http://www.w3.org/2000/svg" version="1.1" width="2000" height="1000" style="display: block;"><polygon stroke-linejoin="round" stroke-miterlimit="1" stroke-width="1" points="551,1099 272,1097 -133,1099" style="fill:#5942aa;stroke:#5942aa;"></polygon><polygon stroke-linejoin="round" stroke-miterlimit="1" stroke-width="1" points="1663,-101 1261,-101 1542,-94" style="fill:#6342bc;stroke:#6342bc;"></polygon><polygon stroke-linejoin="round" stroke-miterlimit="1" stroke-width="1" points="2039,1002 1824,967 1580,1099" style="fill:#6c40cd;stroke:#6c40cd;"></polygon><polygon stroke-linejoin="round" stroke-miterlimit="1" stroke-width="1" points="2201,146 2143,89 1979,302" style="fill:#6040b7;stroke:#6040b7;"></polygon><polygon stroke-linejoin="round" stroke-miterlimit="1" stroke-width="1" points="2201,146 1979,302 1989,322" style="fill:#6340bc;stroke:#6340bc;"></polygon><polygon stroke-linejoin="round" stroke-miterlimit="1" stroke-width="1" points="2201,681 2016,704 2162,728" style="fill:#6540bf;stroke:#6540bf;"></polygon><polygon stroke-linejoin="round" stroke-miterlimit="1" stroke-width="1" points="2201,-101 1973,-101 2075,-11" style="fill:#5d40b0;stroke:#5d40b0;"></polygon><polygon stroke-linejoin="round" stroke-miterlimit="1" stroke-width="1" points="2201,-101 2143,89 2201,146" style="fill:#5d40b0;stroke:#5d40b0;"></polygon><polygon stroke-linejoin="round" stroke-miterlimit="1" stroke-width="1" points="2201,-101 2075,-11 2143,89" style="fill:#5d40b0;stroke:#5d40b0;"></polygon><polygon stroke-linejoin="round" stroke-miterlimit="1" stroke-width="1" points="2201,792 2162,728 2057,753" style="fill:#6440bd;stroke:#6440bd;"></polygon><polygon stroke-linejoin="round" stroke-miterlimit="1" stroke-width="1" points="2201,792 2201,681 2162,728" style="fill:#6240ba;stroke:#6240ba;"></polygon><polygon stroke-linejoin="round" stroke-miterlimit="1" stroke-width="1" points="2201,1015 2145,1011 2201,1040" style="fill:#603fb5;stroke:#603fb5;"></polygon><polygon stroke-linejoin="round" stroke-miterlimit="1" stroke-width="1" points="2201,499 2016,704 2201,681" style="fill:#6440be;stroke:#6440be;"></polygon><polygon stroke-linejoin="round" stroke-miterlimit="1" stroke-width="1" points="2201,499 1989,322 2016,704" style="fill:#6740c3;stroke:#6740c3;"></polygon><polygon stroke-linejoin="round" stroke-miterlimit="1" stroke-width="1" points="2201,499 2201,146 1989,322" style="fill:#6240ba;stroke:#6240ba;"></polygon><polygon stroke-linejoin="round" stroke-miterlimit="1" stroke-width="1" points="2201,908 2056,931 2145,1011" style="fill:#6240ba;stroke:#6240ba;"></polygon><polygon stroke-linejoin="round" stroke-miterlimit="1" stroke-width="1" points="2201,908 2145,1011 2201,1015" style="fill:#603fb6;stroke:#603fb6;"></polygon><polygon stroke-linejoin="round" stroke-miterlimit="1" stroke-width="1" points="2201,839 2201,792 2057,753" style="fill:#6340bc;stroke:#6340bc;"></polygon><polygon stroke-linejoin="round" stroke-miterlimit="1" stroke-width="1" points="2201,839 2057,753 2056,931" style="fill:#6540be;stroke:#6540be;"></polygon><polygon stroke-linejoin="round" stroke-miterlimit="1" stroke-width="1" points="2201,839 2056,931 2201,908" style="fill:#6240ba;stroke:#6240ba;"></polygon><polygon stroke-linejoin="round" stroke-miterlimit="1" stroke-width="1" points="2201,1099 2201,1040 2145,1011" style="fill:#5f3fb4;stroke:#5f3fb4;"></polygon><polygon stroke-linejoin="round" stroke-miterlimit="1" stroke-width="1" points="2201,1099 2145,1011 2039,1002" style="fill:#613fb7;stroke:#613fb7;"></polygon><polygon stroke-linejoin="round" stroke-miterlimit="1" stroke-width="1" points="2201,1099 2039,1002 1580,1099" style="fill:#6640c1;stroke:#6640c1;"></polygon><polygon stroke-linejoin="round" stroke-miterlimit="1" stroke-width="1" points="2016,704 1989,322 1821,465" style="fill:#6d40cf;stroke:#6d40cf;"></polygon><polygon stroke-linejoin="round" stroke-miterlimit="1" stroke-width="1" points="2162,728 2016,704 2057,753" style="fill:#6740c3;stroke:#6740c3;"></polygon><polygon stroke-linejoin="round" stroke-miterlimit="1" stroke-width="1" points="2143,89 1926,7 1979,302" style="fill:#6240b9;stroke:#6240b9;"></polygon><polygon stroke-linejoin="round" stroke-miterlimit="1" stroke-width="1" points="2145,1011 2056,931 2039,1002" style="fill:#6340bc;stroke:#6340bc;"></polygon><polygon stroke-linejoin="round" stroke-miterlimit="1" stroke-width="1" points="2143,89 2075,-11 1926,7" style="fill:#5f40b4;stroke:#5f40b4;"></polygon><polygon stroke-linejoin="round" stroke-miterlimit="1" stroke-width="1" points="1979,302 1926,7 1814,261" style="fill:#6641c1;stroke:#6641c1;"></polygon><polygon stroke-linejoin="round" stroke-miterlimit="1" stroke-width="1" points="1989,322 1899,334 1821,465" style="fill:#6c41cd;stroke:#6c41cd;"></polygon><polygon stroke-linejoin="round" stroke-miterlimit="1" stroke-width="1" points="2016,704 1821,465 1810,665" style="fill:#7441dc;stroke:#7441dc;"></polygon><polygon stroke-linejoin="round" stroke-miterlimit="1" stroke-width="1" points="2057,753 1998,768 2056,931" style="fill:#6840c4;stroke:#6840c4;"></polygon><polygon stroke-linejoin="round" stroke-miterlimit="1" stroke-width="1" points="2075,-11 1973,-101 1926,7" style="fill:#5f40b4;stroke:#5f40b4;"></polygon><polygon stroke-linejoin="round" stroke-miterlimit="1" stroke-width="1" points="2056,931 1862,899 2039,1002" style="fill:#6840c4;stroke:#6840c4;"></polygon><polygon stroke-linejoin="round" stroke-miterlimit="1" stroke-width="1" points="2056,931 1998,768 1862,899" style="fill:#6a40c9;stroke:#6a40c9;"></polygon><polygon stroke-linejoin="round" stroke-miterlimit="1" stroke-width="1" points="2057,753 2016,704 1998,768" style="fill:#6940c8;stroke:#6940c8;"></polygon><polygon stroke-linejoin="round" stroke-miterlimit="1" stroke-width="1" points="2039,1002 1862,899 1824,967" style="fill:#6b40ca;stroke:#6b40ca;"></polygon><polygon stroke-linejoin="round" stroke-miterlimit="1" stroke-width="1" points="1998,768 1837,867 1862,899" style="fill:#6f40d2;stroke:#6f40d2;"></polygon><polygon stroke-linejoin="round" stroke-miterlimit="1" stroke-width="1" points="2016,704 1810,665 1998,768" style="fill:#6f40d2;stroke:#6f40d2;"></polygon><polygon stroke-linejoin="round" stroke-miterlimit="1" stroke-width="1" points="1973,-101 1919,-101 1926,7" style="fill:#5f40b4;stroke:#5f40b4;"></polygon><polygon stroke-linejoin="round" stroke-miterlimit="1" stroke-width="1" points="1979,302 1814,261 1899,334" style="fill:#6a41c8;stroke:#6a41c8;"></polygon><polygon stroke-linejoin="round" stroke-miterlimit="1" stroke-width="1" points="1998,768 1791,726 1837,867" style="fill:#7340da;stroke:#7340da;"></polygon><polygon stroke-linejoin="round" stroke-miterlimit="1" stroke-width="1" points="1998,768 1810,665 1791,726" style="fill:#7641df;stroke:#7641df;"></polygon><polygon stroke-linejoin="round" stroke-miterlimit="1" stroke-width="1" points="1989,322 1979,302 1899,334" style="fill:#6840c5;stroke:#6840c5;"></polygon><polygon stroke-linejoin="round" stroke-miterlimit="1" stroke-width="1" points="1926,7 1836,-28 1814,261" style="fill:#6441bd;stroke:#6441bd;"></polygon><polygon stroke-linejoin="round" stroke-miterlimit="1" stroke-width="1" points="1899,334 1808,350 1821,465" style="fill:#7041d4;stroke:#7041d4;"></polygon><polygon stroke-linejoin="round" stroke-miterlimit="1" stroke-width="1" points="1919,-101 1663,-101 1836,-28" style="fill:#6141b7;stroke:#6141b7;"></polygon><polygon stroke-linejoin="round" stroke-miterlimit="1" stroke-width="1" points="1926,7 1919,-101 1836,-28" style="fill:#6041b6;stroke:#6041b6;"></polygon><polygon stroke-linejoin="round" stroke-miterlimit="1" stroke-width="1" points="1899,334 1814,261 1808,350" style="fill:#6d41cf;stroke:#6d41cf;"></polygon><polygon stroke-linejoin="round" stroke-miterlimit="1" stroke-width="1" points="1836,-28 1737,298 1814,261" style="fill:#6941c6;stroke:#6941c6;"></polygon><polygon stroke-linejoin="round" stroke-miterlimit="1" stroke-width="1" points="1836,-28 1663,-101 1737,298" style="fill:#6541c0;stroke:#6541c0;"></polygon><polygon stroke-linejoin="round" stroke-miterlimit="1" stroke-width="1" points="1862,899 1837,867 1824,967" style="fill:#7040d5;stroke:#7040d5;"></polygon><polygon stroke-linejoin="round" stroke-miterlimit="1" stroke-width="1" points="1814,261 1737,298 1808,350" style="fill:#6f41d2;stroke:#6f41d2;"></polygon><polygon stroke-linejoin="round" stroke-miterlimit="1" stroke-width="1" points="1821,465 1724,730 1810,665" style="fill:#8141f4;stroke:#8141f4;"></polygon><polygon stroke-linejoin="round" stroke-miterlimit="1" stroke-width="1" points="1837,867 1724,730 1599,808" style="fill:#8441fa;stroke:#8441fa;"></polygon><polygon stroke-linejoin="round" stroke-miterlimit="1" stroke-width="1" points="1837,867 1573,878 1824,967" style="fill:#7841e3;stroke:#7841e3;"></polygon><polygon stroke-linejoin="round" stroke-miterlimit="1" stroke-width="1" points="1837,867 1599,808 1573,878" style="fill:#8441fb;stroke:#8441fb;"></polygon><polygon stroke-linejoin="round" stroke-miterlimit="1" stroke-width="1" points="1837,867 1791,726 1724,730" style="fill:#7d41ed;stroke:#7d41ed;"></polygon><polygon stroke-linejoin="round" stroke-miterlimit="1" stroke-width="1" points="1737,298 1663,-101 1542,-94" style="fill:#6642c1;stroke:#6642c1;"></polygon><polygon stroke-linejoin="round" stroke-miterlimit="1" stroke-width="1" points="1821,465 1377,386 1724,730" style="fill:#9542ff;stroke:#9542ff;"></polygon><polygon stroke-linejoin="round" stroke-miterlimit="1" stroke-width="1" points="1821,465 1808,350 1737,298" style="fill:#7341da;stroke:#7341da;"></polygon><polygon stroke-linejoin="round" stroke-miterlimit="1" stroke-width="1" points="1824,967 1573,878 1580,1099" style="fill:#7641df;stroke:#7641df;"></polygon><polygon stroke-linejoin="round" stroke-miterlimit="1" stroke-width="1" points="1821,465 1737,298 1377,386" style="fill:#7e42ee;stroke:#7e42ee;"></polygon><polygon stroke-linejoin="round" stroke-miterlimit="1" stroke-width="1" points="1810,665 1724,730 1791,726" style="fill:#8241f5;stroke:#8241f5;"></polygon><polygon stroke-linejoin="round" stroke-miterlimit="1" stroke-width="1" points="1724,730 1377,386 1386,735" style="fill:#c643ff;stroke:#c643ff;"></polygon><polygon stroke-linejoin="round" stroke-miterlimit="1" stroke-width="1" points="1737,298 1542,-94 1319,154" style="fill:#6b42cb;stroke:#6b42cb;"></polygon><polygon stroke-linejoin="round" stroke-miterlimit="1" stroke-width="1" points="1724,730 1386,735 1599,808" style="fill:#a842ff;stroke:#a842ff;"></polygon><polygon stroke-linejoin="round" stroke-miterlimit="1" stroke-width="1" points="1737,298 1319,154 1377,386" style="fill:#7642e0;stroke:#7642e0;"></polygon><polygon stroke-linejoin="round" stroke-miterlimit="1" stroke-width="1" points="1386,735 1377,386 1297,472" style="fill:#9243ff;stroke:#9243ff;"></polygon><polygon stroke-linejoin="round" stroke-miterlimit="1" stroke-width="1" points="1377,386 1319,154 1294,232" style="fill:#7243d9;stroke:#7243d9;"></polygon><polygon stroke-linejoin="round" stroke-miterlimit="1" stroke-width="1" points="1386,735 1297,472 1268,551" style="fill:#9143ff;stroke:#9143ff;"></polygon><polygon stroke-linejoin="round" stroke-miterlimit="1" stroke-width="1" points="1542,-94 1326,-25 1319,154" style="fill:#6643c3;stroke:#6643c3;"></polygon><polygon stroke-linejoin="round" stroke-miterlimit="1" stroke-width="1" points="1580,1099 1573,878 1475,880" style="fill:#7d41ee;stroke:#7d41ee;"></polygon><polygon stroke-linejoin="round" stroke-miterlimit="1" stroke-width="1" points="1599,808 1475,880 1573,878" style="fill:#8f42ff;stroke:#8f42ff;"></polygon><polygon stroke-linejoin="round" stroke-miterlimit="1" stroke-width="1" points="1599,808 1386,735 1475,880" style="fill:#9d42ff;stroke:#9d42ff;"></polygon><polygon stroke-linejoin="round" stroke-miterlimit="1" stroke-width="1" points="1580,1099 1475,880 1288,1099" style="fill:#7541dd;stroke:#7541dd;"></polygon><polygon stroke-linejoin="round" stroke-miterlimit="1" stroke-width="1" points="1542,-94 1261,-101 1326,-25" style="fill:#6443be;stroke:#6443be;"></polygon><polygon stroke-linejoin="round" stroke-miterlimit="1" stroke-width="1" points="1386,735 1268,551 1296,699" style="fill:#9343ff;stroke:#9343ff;"></polygon><polygon stroke-linejoin="round" stroke-miterlimit="1" stroke-width="1" points="1475,880 1386,735 1317,818" style="fill:#9242ff;stroke:#9242ff;"></polygon><polygon stroke-linejoin="round" stroke-miterlimit="1" stroke-width="1" points="1475,880 1317,818 1288,1099" style="fill:#7c42eb;stroke:#7c42eb;"></polygon><polygon stroke-linejoin="round" stroke-miterlimit="1" stroke-width="1" points="1326,-25 1258,44 1319,154" style="fill:#6844c6;stroke:#6844c6;"></polygon><polygon stroke-linejoin="round" stroke-miterlimit="1" stroke-width="1" points="1377,386 1280,419 1297,472" style="fill:#8043f3;stroke:#8043f3;"></polygon><polygon stroke-linejoin="round" stroke-miterlimit="1" stroke-width="1" points="1377,386 1294,232 1280,419" style="fill:#7843e5;stroke:#7843e5;"></polygon><polygon stroke-linejoin="round" stroke-miterlimit="1" stroke-width="1" points="1386,735 1296,699 1317,818" style="fill:#9143ff;stroke:#9143ff;"></polygon><polygon stroke-linejoin="round" stroke-miterlimit="1" stroke-width="1" points="1317,818 1001,1099 1288,1099" style="fill:#6e42d1;stroke:#6e42d1;"></polygon><polygon stroke-linejoin="round" stroke-miterlimit="1" stroke-width="1" points="1326,-25 1261,-101 1258,44" style="fill:#6544c1;stroke:#6544c1;"></polygon><polygon stroke-linejoin="round" stroke-miterlimit="1" stroke-width="1" points="1317,818 1296,699 985,647" style="fill:#7d43ed;stroke:#7d43ed;"></polygon><polygon stroke-linejoin="round" stroke-miterlimit="1" stroke-width="1" points="1317,818 985,647 1001,1099" style="fill:#7042d4;stroke:#7042d4;"></polygon><polygon stroke-linejoin="round" stroke-miterlimit="1" stroke-width="1" points="1319,154 1258,44 1294,232" style="fill:#6b44cc;stroke:#6b44cc;"></polygon><polygon stroke-linejoin="round" stroke-miterlimit="1" stroke-width="1" points="1294,232 882,129 1280,419" style="fill:#6d45d1;stroke:#6d45d1;"></polygon><polygon stroke-linejoin="round" stroke-miterlimit="1" stroke-width="1" points="1294,232 1258,44 882,129" style="fill:#6945c9;stroke:#6945c9;"></polygon><polygon stroke-linejoin="round" stroke-miterlimit="1" stroke-width="1" points="1296,699 1135,570 985,647" style="fill:#7743e3;stroke:#7743e3;"></polygon><polygon stroke-linejoin="round" stroke-miterlimit="1" stroke-width="1" points="1296,699 1268,551 1135,570" style="fill:#8243f8;stroke:#8243f8;"></polygon><polygon stroke-linejoin="round" stroke-miterlimit="1" stroke-width="1" points="1297,472 1280,419 1268,551" style="fill:#8243f6;stroke:#8243f6;"></polygon><polygon stroke-linejoin="round" stroke-miterlimit="1" stroke-width="1" points="1280,419 1135,570 1268,551" style="fill:#7e44ef;stroke:#7e44ef;"></polygon><polygon stroke-linejoin="round" stroke-miterlimit="1" stroke-width="1" points="1280,419 882,129 1135,570" style="fill:#6f45d5;stroke:#6f45d5;"></polygon><polygon stroke-linejoin="round" stroke-miterlimit="1" stroke-width="1" points="1258,44 924,5 916,19" style="fill:#6647c4;stroke:#6647c4;"></polygon><polygon stroke-linejoin="round" stroke-miterlimit="1" stroke-width="1" points="1258,44 916,19 882,129" style="fill:#6747c5;stroke:#6747c5;"></polygon><polygon stroke-linejoin="round" stroke-miterlimit="1" stroke-width="1" points="1261,-101 1001,-101 1258,44" style="fill:#6445c0;stroke:#6445c0;"></polygon><polygon stroke-linejoin="round" stroke-miterlimit="1" stroke-width="1" points="1258,44 1001,-101 924,5" style="fill:#6546c2;stroke:#6546c2;"></polygon><polygon stroke-linejoin="round" stroke-miterlimit="1" stroke-width="1" points="1001,1099 985,647 852,1034" style="fill:#6742c4;stroke:#6742c4;"></polygon><polygon stroke-linejoin="round" stroke-miterlimit="1" stroke-width="1" points="1135,570 754,288 985,647" style="fill:#6c46ce;stroke:#6c46ce;"></polygon><polygon stroke-linejoin="round" stroke-miterlimit="1" stroke-width="1" points="1135,570 882,129 754,288" style="fill:#6a48cc;stroke:#6a48cc;"></polygon><polygon stroke-linejoin="round" stroke-miterlimit="1" stroke-width="1" points="985,647 754,288 573,371" style="fill:#6849c8;stroke:#6849c8;"></polygon><polygon stroke-linejoin="round" stroke-miterlimit="1" stroke-width="1" points="985,647 631,932 852,1034" style="fill:#6443bf;stroke:#6443bf;"></polygon><polygon stroke-linejoin="round" stroke-miterlimit="1" stroke-width="1" points="1001,-101 722,-16 924,5" style="fill:#664ac5;stroke:#664ac5;"></polygon><polygon stroke-linejoin="round" stroke-miterlimit="1" stroke-width="1" points="1001,-101 648,-101 722,-16" style="fill:#674dc9;stroke:#674dc9;"></polygon><polygon stroke-linejoin="round" stroke-miterlimit="1" stroke-width="1" points="1001,1099 852,1034 813,1099" style="fill:#6242bb;stroke:#6242bb;"></polygon><polygon stroke-linejoin="round" stroke-miterlimit="1" stroke-width="1" points="985,647 573,371 631,932" style="fill:#6546c1;stroke:#6546c1;"></polygon><polygon stroke-linejoin="round" stroke-miterlimit="1" stroke-width="1" points="631,932 573,371 409,525" style="fill:#6247bd;stroke:#6247bd;"></polygon><polygon stroke-linejoin="round" stroke-miterlimit="1" stroke-width="1" points="924,5 722,-16 916,19" style="fill:#674cc8;stroke:#674cc8;"></polygon><polygon stroke-linejoin="round" stroke-miterlimit="1" stroke-width="1" points="916,19 722,-16 882,129" style="fill:#684cca;stroke:#684cca;"></polygon><polygon stroke-linejoin="round" stroke-miterlimit="1" stroke-width="1" points="882,129 653,72 754,288" style="fill:#6a4fcf;stroke:#6a4fcf;"></polygon><polygon stroke-linejoin="round" stroke-miterlimit="1" stroke-width="1" points="882,129 722,-16 653,72" style="fill:#6b51d1;stroke:#6b51d1;"></polygon><polygon stroke-linejoin="round" stroke-miterlimit="1" stroke-width="1" points="852,1034 721,1099 813,1099" style="fill:#6142b8;stroke:#6142b8;"></polygon><polygon stroke-linejoin="round" stroke-miterlimit="1" stroke-width="1" points="852,1034 631,932 721,1099" style="fill:#6042b7;stroke:#6042b7;"></polygon><polygon stroke-linejoin="round" stroke-miterlimit="1" stroke-width="1" points="631,932 409,525 406,844" style="fill:#5f45b7;stroke:#5f45b7;"></polygon><polygon stroke-linejoin="round" stroke-miterlimit="1" stroke-width="1" points="754,288 653,72 585,182" style="fill:#6d54d8;stroke:#6d54d8;"></polygon><polygon stroke-linejoin="round" stroke-miterlimit="1" stroke-width="1" points="721,1099 612,1059 653,1099" style="fill:#5e42b4;stroke:#5e42b4;"></polygon><polygon stroke-linejoin="round" stroke-miterlimit="1" stroke-width="1" points="721,1099 631,932 612,1059" style="fill:#5f42b5;stroke:#5f42b5;"></polygon><polygon stroke-linejoin="round" stroke-miterlimit="1" stroke-width="1" points="754,288 585,182 563,256" style="fill:#6c53d5;stroke:#6c53d5;"></polygon><polygon stroke-linejoin="round" stroke-miterlimit="1" stroke-width="1" points="754,288 563,256 573,371" style="fill:#6a50cf;stroke:#6a50cf;"></polygon><polygon stroke-linejoin="round" stroke-miterlimit="1" stroke-width="1" points="722,-16 617,41 653,72" style="fill:#7058dd;stroke:#7058dd;"></polygon><polygon stroke-linejoin="round" stroke-miterlimit="1" stroke-width="1" points="722,-16 648,-101 617,41" style="fill:#6e57da;stroke:#6e57da;"></polygon><polygon stroke-linejoin="round" stroke-miterlimit="1" stroke-width="1" points="653,72 617,41 585,182" style="fill:#745de7;stroke:#745de7;"></polygon><polygon stroke-linejoin="round" stroke-miterlimit="1" stroke-width="1" points="653,1099 612,1067 551,1099" style="fill:#5d42b2;stroke:#5d42b2;"></polygon><polygon stroke-linejoin="round" stroke-miterlimit="1" stroke-width="1" points="653,1099 612,1059 612,1067" style="fill:#5e42b3;stroke:#5e42b3;"></polygon><polygon stroke-linejoin="round" stroke-miterlimit="1" stroke-width="1" points="648,-101 225,-101 617,41" style="fill:#7d6afe;stroke:#7d6afe;"></polygon><polygon stroke-linejoin="round" stroke-miterlimit="1" stroke-width="1" points="617,41 521,198 585,182" style="fill:#7660ed;stroke:#7660ed;"></polygon><polygon stroke-linejoin="round" stroke-miterlimit="1" stroke-width="1" points="631,932 551,1099 612,1059" style="fill:#5e42b3;stroke:#5e42b3;"></polygon><polygon stroke-linejoin="round" stroke-miterlimit="1" stroke-width="1" points="631,932 406,844 551,1099" style="fill:#5e43b3;stroke:#5e43b3;"></polygon><polygon stroke-linejoin="round" stroke-miterlimit="1" stroke-width="1" points="617,41 225,-101 521,198" style="fill:#9383ff;stroke:#9383ff;"></polygon><polygon stroke-linejoin="round" stroke-miterlimit="1" stroke-width="1" points="612,1067 612,1059 551,1099" style="fill:#5d42b2;stroke:#5d42b2;"></polygon><polygon stroke-linejoin="round" stroke-miterlimit="1" stroke-width="1" points="585,182 521,198 563,256" style="fill:#7159e0;stroke:#7159e0;"></polygon><polygon stroke-linejoin="round" stroke-miterlimit="1" stroke-width="1" points="551,1099 406,844 272,1097" style="fill:#5c43af;stroke:#5c43af;"></polygon><polygon stroke-linejoin="round" stroke-miterlimit="1" stroke-width="1" points="573,371 563,256 521,198" style="fill:#6c54d6;stroke:#6c54d6;"></polygon><polygon stroke-linejoin="round" stroke-miterlimit="1" stroke-width="1" points="573,371 521,198 409,525" style="fill:#684fcb;stroke:#684fcb;"></polygon><polygon stroke-linejoin="round" stroke-miterlimit="1" stroke-width="1" points="521,198 122,306 409,525" style="fill:#664fc8;stroke:#664fc8;"></polygon><polygon stroke-linejoin="round" stroke-miterlimit="1" stroke-width="1" points="409,525 122,306 222,520" style="fill:#614abb;stroke:#614abb;"></polygon><polygon stroke-linejoin="round" stroke-miterlimit="1" stroke-width="1" points="521,198 225,-101 122,306" style="fill:#6f5adc;stroke:#6f5adc;"></polygon><polygon stroke-linejoin="round" stroke-miterlimit="1" stroke-width="1" points="406,844 174,635 199,968" style="fill:#5c44b0;stroke:#5c44b0;"></polygon><polygon stroke-linejoin="round" stroke-miterlimit="1" stroke-width="1" points="406,844 199,968 272,1097" style="fill:#5b43ad;stroke:#5b43ad;"></polygon><polygon stroke-linejoin="round" stroke-miterlimit="1" stroke-width="1" points="409,525 174,635 406,844" style="fill:#5e46b5;stroke:#5e46b5;"></polygon><polygon stroke-linejoin="round" stroke-miterlimit="1" stroke-width="1" points="409,525 222,520 174,635" style="fill:#5f47b7;stroke:#5f47b7;"></polygon><polygon stroke-linejoin="round" stroke-miterlimit="1" stroke-width="1" points="199,968 174,635 -12,884" style="fill:#5a43ac;stroke:#5a43ac;"></polygon><polygon stroke-linejoin="round" stroke-miterlimit="1" stroke-width="1" points="222,520 122,306 59,423" style="fill:#5f49b7;stroke:#5f49b7;"></polygon><polygon stroke-linejoin="round" stroke-miterlimit="1" stroke-width="1" points="225,-101 -108,152 122,306" style="fill:#614cbc;stroke:#614cbc;"></polygon><polygon stroke-linejoin="round" stroke-miterlimit="1" stroke-width="1" points="225,-101 -48,-101 -108,152" style="fill:#5f4ab7;stroke:#5f4ab7;"></polygon><polygon stroke-linejoin="round" stroke-miterlimit="1" stroke-width="1" points="272,1097 199,968 -133,1099" style="fill:#5942a9;stroke:#5942a9;"></polygon><polygon stroke-linejoin="round" stroke-miterlimit="1" stroke-width="1" points="199,968 -70,922 -133,1099" style="fill:#5842a8;stroke:#5842a8;"></polygon><polygon stroke-linejoin="round" stroke-miterlimit="1" stroke-width="1" points="222,520 59,423 174,635" style="fill:#5e47b4;stroke:#5e47b4;"></polygon><polygon stroke-linejoin="round" stroke-miterlimit="1" stroke-width="1" points="199,968 -12,884 -70,922" style="fill:#5942a9;stroke:#5942a9;"></polygon><polygon stroke-linejoin="round" stroke-miterlimit="1" stroke-width="1" points="174,635 59,423 -133,607" style="fill:#5b45b0;stroke:#5b45b0;"></polygon><polygon stroke-linejoin="round" stroke-miterlimit="1" stroke-width="1" points="174,635 -133,607 -12,884" style="fill:#5a44ac;stroke:#5a44ac;"></polygon><polygon stroke-linejoin="round" stroke-miterlimit="1" stroke-width="1" points="122,306 -108,152 59,423" style="fill:#5e49b5;stroke:#5e49b5;"></polygon><polygon stroke-linejoin="round" stroke-miterlimit="1" stroke-width="1" points="-108,152 -199,170 -199,499" style="fill:#5a45ad;stroke:#5a45ad;"></polygon><polygon stroke-linejoin="round" stroke-miterlimit="1" stroke-width="1" points="-48,-101 -198,38 -108,152" style="fill:#5b47af;stroke:#5b47af;"></polygon><polygon stroke-linejoin="round" stroke-miterlimit="1" stroke-width="1" points="59,423 -108,152 -199,499" style="fill:#5b46af;stroke:#5b46af;"></polygon><polygon stroke-linejoin="round" stroke-miterlimit="1" stroke-width="1" points="59,423 -199,499 -133,607" style="fill:#5a45ac;stroke:#5a45ac;"></polygon><polygon stroke-linejoin="round" stroke-miterlimit="1" stroke-width="1" points="-133,607 -199,499 -199,517" style="fill:#5944aa;stroke:#5944aa;"></polygon><polygon stroke-linejoin="round" stroke-miterlimit="1" stroke-width="1" points="-70,922 -133,607 -199,922" style="fill:#5842a7;stroke:#5842a7;"></polygon><polygon stroke-linejoin="round" stroke-miterlimit="1" stroke-width="1" points="-48,-101 -197,-27 -198,38" style="fill:#5a46ae;stroke:#5a46ae;"></polygon><polygon stroke-linejoin="round" stroke-miterlimit="1" stroke-width="1" points="-12,884 -133,607 -70,922" style="fill:#5843a9;stroke:#5843a9;"></polygon><polygon stroke-linejoin="round" stroke-miterlimit="1" stroke-width="1" points="-133,607 -199,603 -199,922" style="fill:#5843a8;stroke:#5843a8;"></polygon><polygon stroke-linejoin="round" stroke-miterlimit="1" stroke-width="1" points="-70,922 -199,1068 -133,1099" style="fill:#5741a5;stroke:#5741a5;"></polygon><polygon stroke-linejoin="round" stroke-miterlimit="1" stroke-width="1" points="-70,922 -199,922 -199,1068" style="fill:#5742a5;stroke:#5742a5;"></polygon><polygon stroke-linejoin="round" stroke-miterlimit="1" stroke-width="1" points="-48,-101 -199,-101 -197,-27" style="fill:#5a46ad;stroke:#5a46ad;"></polygon><polygon stroke-linejoin="round" stroke-miterlimit="1" stroke-width="1" points="-133,607 -199,517 -199,564" style="fill:#5944a9;stroke:#5944a9;"></polygon><polygon stroke-linejoin="round" stroke-miterlimit="1" stroke-width="1" points="-108,152 -198,38 -199,170" style="fill:#5a46ad;stroke:#5a46ad;"></polygon><polygon stroke-linejoin="round" stroke-miterlimit="1" stroke-width="1" points="-133,607 -199,583 -199,603" style="fill:#5843a9;stroke:#5843a9;"></polygon><polygon stroke-linejoin="round" stroke-miterlimit="1" stroke-width="1" points="-133,607 -199,564 -199,583" style="fill:#5844a9;stroke:#5844a9;"></polygon><polygon stroke-linejoin="round" stroke-miterlimit="1" stroke-width="1" points="-133,1099 -199,1068 -199,1099" style="fill:#5641a4;stroke:#5641a4;"></polygon><polygon stroke-linejoin="round" stroke-miterlimit="1" stroke-width="1" points="-197,-27 -199,-101 -198,38" style="fill:#5946ac;stroke:#5946ac;"></polygon></svg>